<svg width="704" height="496" viewBox="0 0 704 496" fill="none" xmlns="http://www.w3.org/2000/svg">
<path d="M156.022 391.1C147.515 391.1 140.439 389.413 134.792 386.04C129.145 382.667 124.929 377.973 122.142 371.96C119.355 365.873 117.962 358.76 117.962 350.62C117.962 342.7 119.355 335.733 122.142 329.72C124.929 323.633 129.145 318.903 134.792 315.53C140.512 312.083 147.699 310.36 156.352 310.36C161.632 310.36 166.105 310.947 169.772 312.12C173.439 313.22 176.225 314.76 178.132 316.74C180.039 318.647 180.992 320.81 180.992 323.23C180.992 325.943 179.819 328.217 177.472 330.05C175.125 331.81 171.715 332.69 167.242 332.69C167.242 327.703 166.765 323.67 165.812 320.59C164.859 317.437 163.392 315.127 161.412 313.66C159.505 312.193 156.975 311.46 153.822 311.46C149.789 311.46 146.489 312.817 143.922 315.53C141.355 318.243 139.449 322.497 138.202 328.29C137.029 334.01 136.442 341.453 136.442 350.62C136.442 359.787 137.175 367.267 138.642 373.06C140.182 378.853 142.529 383.107 145.682 385.82C148.909 388.533 153.015 389.89 158.002 389.89C161.595 389.89 164.712 389.23 167.352 387.91C170.065 386.517 172.302 384.5 174.062 381.86C175.822 379.147 177.105 375.81 177.912 371.85C178.865 372.217 179.599 372.803 180.112 373.61C180.625 374.417 180.882 375.443 180.882 376.69C180.882 378.157 180.442 379.733 179.562 381.42C178.755 383.033 177.399 384.61 175.492 386.15C173.585 387.617 171.019 388.827 167.792 389.78C164.639 390.66 160.715 391.1 156.022 391.1ZM228.729 391.1C220.369 391.1 213.439 389.413 207.939 386.04C202.439 382.667 198.295 377.937 195.509 371.85C192.795 365.763 191.439 358.65 191.439 350.51C191.439 342.37 192.795 335.293 195.509 329.28C198.295 323.267 202.439 318.61 207.939 315.31C213.512 311.937 220.479 310.25 228.839 310.25C236.759 310.25 243.469 311.937 248.969 315.31C254.542 318.61 258.759 323.303 261.619 329.39C264.479 335.403 265.909 342.48 265.909 350.62C265.909 358.76 264.442 365.873 261.509 371.96C258.649 377.973 254.469 382.667 248.969 386.04C243.469 389.413 236.722 391.1 228.729 391.1ZM228.729 390C232.029 390 234.852 389.267 237.199 387.8C239.545 386.26 241.452 383.913 242.919 380.76C244.459 377.533 245.595 373.427 246.329 368.44C247.062 363.453 247.429 357.513 247.429 350.62C247.429 343.727 247.062 337.823 246.329 332.91C245.595 327.923 244.459 323.853 242.919 320.7C241.452 317.473 239.545 315.127 237.199 313.66C234.852 312.12 232.065 311.35 228.839 311.35C225.539 311.35 222.679 312.12 220.259 313.66C217.912 315.127 215.969 317.473 214.429 320.7C212.889 323.853 211.752 327.923 211.019 332.91C210.285 337.823 209.919 343.727 209.919 350.62C209.919 357.513 210.285 363.453 211.019 368.44C211.752 373.427 212.852 377.533 214.319 380.76C215.859 383.913 217.802 386.26 220.149 387.8C222.569 389.267 225.429 390 228.729 390ZM275.051 390V388.9H283.081C284.107 388.9 285.024 388.753 285.831 388.46C286.711 388.167 287.407 387.543 287.921 386.59C288.434 385.637 288.691 384.207 288.691 382.3V319.27C288.691 317.29 288.434 315.823 287.921 314.87C287.407 313.917 286.711 313.293 285.831 313C285.024 312.707 284.107 312.56 283.081 312.56H275.051V311.46H305.081L327.851 371.41L346.551 311.46H373.611V312.56H368.991C367.964 312.56 367.011 312.743 366.131 313.11C365.251 313.403 364.554 314.063 364.041 315.09C363.601 316.043 363.381 317.583 363.381 319.71V381.75C363.381 383.803 363.601 385.343 364.041 386.37C364.554 387.397 365.251 388.093 366.131 388.46C367.011 388.753 367.964 388.9 368.991 388.9H373.611V390H338.411V388.9H339.511C341.051 388.9 342.334 388.753 343.361 388.46C344.387 388.167 345.157 387.58 345.671 386.7C346.184 385.82 346.441 384.5 346.441 382.74V315.53L323.121 390H317.841L289.791 316.08V381.75C289.791 383.803 290.084 385.343 290.671 386.37C291.331 387.397 292.284 388.093 293.531 388.46C294.777 388.753 296.244 388.9 297.931 388.9H302.331V390H275.051ZM379.787 390V388.9H384.407C385.507 388.9 386.46 388.753 387.267 388.46C388.147 388.093 388.807 387.397 389.247 386.37C389.76 385.343 390.017 383.803 390.017 381.75V319.71C390.017 317.583 389.76 316.043 389.247 315.09C388.807 314.063 388.147 313.403 387.267 313.11C386.46 312.743 385.507 312.56 384.407 312.56H379.787V311.46H417.737V312.56H413.117C412.09 312.56 411.137 312.743 410.257 313.11C409.377 313.403 408.68 314.063 408.167 315.09C407.727 316.043 407.507 317.583 407.507 319.71V381.75C407.507 383.803 407.727 385.343 408.167 386.37C408.68 387.397 409.377 388.093 410.257 388.46C411.137 388.753 412.09 388.9 413.117 388.9H417.737V390H379.787ZM423.937 390V388.9H430.757C431.784 388.9 432.701 388.753 433.507 388.46C434.387 388.093 435.084 387.397 435.597 386.37C436.111 385.343 436.367 383.803 436.367 381.75V319.27C436.367 317.29 436.111 315.823 435.597 314.87C435.084 313.917 434.387 313.293 433.507 313C432.701 312.707 431.784 312.56 430.757 312.56H423.937V311.46H451.877L490.817 370.75V319.27C490.817 317.29 490.561 315.823 490.047 314.87C489.534 313.917 488.837 313.293 487.957 313C487.151 312.707 486.234 312.56 485.207 312.56H476.957V311.46H505.667V312.56H497.527C496.501 312.56 495.547 312.743 494.667 313.11C493.861 313.403 493.201 314.063 492.687 315.09C492.174 316.043 491.917 317.583 491.917 319.71V390H485.317L437.467 317.18V381.75C437.467 383.803 437.724 385.343 438.237 386.37C438.751 387.397 439.411 388.093 440.217 388.46C441.097 388.753 442.051 388.9 443.077 388.9H452.647V390H423.937ZM554.077 391.1C544.984 391.1 537.43 389.413 531.417 386.04C525.477 382.667 521.004 377.973 517.997 371.96C515.064 365.873 513.597 358.76 513.597 350.62C513.597 342.7 515.137 335.733 518.217 329.72C521.297 323.633 525.88 318.903 531.967 315.53C538.127 312.083 545.68 310.36 554.627 310.36C560.714 310.36 565.774 310.947 569.807 312.12C573.914 313.22 576.994 314.723 579.047 316.63C581.1 318.537 582.127 320.7 582.127 323.12C582.127 325.687 580.917 327.887 578.497 329.72C576.077 331.553 572.557 332.47 567.937 332.47C567.937 327.483 567.497 323.45 566.617 320.37C565.737 317.29 564.234 315.053 562.107 313.66C560.054 312.193 557.23 311.46 553.637 311.46C548.65 311.46 544.544 312.817 541.317 315.53C538.164 318.243 535.817 322.497 534.277 328.29C532.81 334.01 532.077 341.453 532.077 350.62C532.077 359.787 532.884 367.267 534.497 373.06C536.184 378.853 538.75 383.107 542.197 385.82C545.717 388.533 550.227 389.89 555.727 389.89C557.12 389.89 558.477 389.853 559.797 389.78C561.19 389.633 562.51 389.413 563.757 389.12V361.95C563.757 359.97 563.464 358.43 562.877 357.33C562.29 356.157 561.41 355.35 560.237 354.91C559.137 354.397 557.707 354.14 555.947 354.14H554.517V353.04H589.057V354.14H587.627C586.16 354.14 584.914 354.397 583.887 354.91C582.934 355.423 582.237 356.267 581.797 357.44C581.357 358.613 581.137 360.263 581.137 362.39V385.16C576.884 387.14 572.557 388.643 568.157 389.67C563.757 390.623 559.064 391.1 554.077 391.1ZM217.897 495.1C213.35 495.1 209.5 494.66 206.347 493.78C203.193 492.827 200.627 491.58 198.647 490.04C196.74 488.5 195.347 486.813 194.467 484.98C193.587 483.073 193.147 481.203 193.147 479.37C193.147 476.95 193.733 475.043 194.907 473.65C196.08 472.183 197.62 471.12 199.527 470.46C201.433 469.8 203.45 469.47 205.577 469.47C205.577 476.217 206.2 481.35 207.447 484.87C208.767 488.39 210.527 490.81 212.727 492.13C214.927 493.377 217.457 494 220.317 494C224.717 494 228.31 492.827 231.097 490.48C233.957 488.133 235.387 484.613 235.387 479.92C235.387 476.473 234.617 473.65 233.077 471.45C231.537 469.177 229.3 467.197 226.367 465.51C223.507 463.823 220.023 462.137 215.917 460.45C212.103 458.91 208.877 457.297 206.237 455.61C203.597 453.923 201.47 452.127 199.857 450.22C198.243 448.24 197.07 446.15 196.337 443.95C195.677 441.677 195.347 439.183 195.347 436.47C195.347 431.997 196.483 428.11 198.757 424.81C201.03 421.51 204.293 418.943 208.547 417.11C212.8 415.277 217.86 414.36 223.727 414.36C228.42 414.36 232.38 414.947 235.607 416.12C238.907 417.22 241.4 418.723 243.087 420.63C244.847 422.537 245.727 424.663 245.727 427.01C245.727 429.65 244.59 431.85 242.317 433.61C240.117 435.37 236.743 436.25 232.197 436.25C232.197 431.483 231.793 427.597 230.987 424.59C230.253 421.583 229.007 419.347 227.247 417.88C225.56 416.413 223.25 415.68 220.317 415.68C218.41 415.68 216.503 416.047 214.597 416.78C212.69 417.513 211.113 418.797 209.867 420.63C208.62 422.463 207.997 425.067 207.997 428.44C207.997 431.227 208.62 433.72 209.867 435.92C211.113 438.047 213.167 440.063 216.027 441.97C218.887 443.803 222.773 445.71 227.687 447.69C232.747 449.743 236.817 451.87 239.897 454.07C243.05 456.27 245.323 458.763 246.717 461.55C248.11 464.263 248.807 467.417 248.807 471.01C248.807 475.703 247.597 479.883 245.177 483.55C242.83 487.143 239.347 489.967 234.727 492.02C230.107 494.073 224.497 495.1 217.897 495.1ZM297.64 495.1C289.28 495.1 282.35 493.413 276.85 490.04C271.35 486.667 267.206 481.937 264.42 475.85C261.706 469.763 260.35 462.65 260.35 454.51C260.35 446.37 261.706 439.293 264.42 433.28C267.206 427.267 271.35 422.61 276.85 419.31C282.423 415.937 289.39 414.25 297.75 414.25C305.67 414.25 312.38 415.937 317.88 419.31C323.453 422.61 327.67 427.303 330.53 433.39C333.39 439.403 334.82 446.48 334.82 454.62C334.82 462.76 333.353 469.873 330.42 475.96C327.56 481.973 323.38 486.667 317.88 490.04C312.38 493.413 305.633 495.1 297.64 495.1ZM297.64 494C300.94 494 303.763 493.267 306.11 491.8C308.456 490.26 310.363 487.913 311.83 484.76C313.37 481.533 314.506 477.427 315.24 472.44C315.973 467.453 316.34 461.513 316.34 454.62C316.34 447.727 315.973 441.823 315.24 436.91C314.506 431.923 313.37 427.853 311.83 424.7C310.363 421.473 308.456 419.127 306.11 417.66C303.763 416.12 300.976 415.35 297.75 415.35C294.45 415.35 291.59 416.12 289.17 417.66C286.823 419.127 284.88 421.473 283.34 424.7C281.8 427.853 280.663 431.923 279.93 436.91C279.196 441.823 278.83 447.727 278.83 454.62C278.83 461.513 279.196 467.453 279.93 472.44C280.663 477.427 281.763 481.533 283.23 484.76C284.77 487.913 286.713 490.26 289.06 491.8C291.48 493.267 294.34 494 297.64 494ZM384.222 495.1C375.862 495.1 368.932 493.413 363.432 490.04C357.932 486.667 353.789 481.937 351.002 475.85C348.289 469.763 346.932 462.65 346.932 454.51C346.932 446.37 348.289 439.293 351.002 433.28C353.789 427.267 357.932 422.61 363.432 419.31C369.005 415.937 375.972 414.25 384.332 414.25C392.252 414.25 398.962 415.937 404.462 419.31C410.035 422.61 414.252 427.303 417.112 433.39C419.972 439.403 421.402 446.48 421.402 454.62C421.402 462.76 419.935 469.873 417.002 475.96C414.142 481.973 409.962 486.667 404.462 490.04C398.962 493.413 392.215 495.1 384.222 495.1ZM384.222 494C387.522 494 390.345 493.267 392.692 491.8C395.039 490.26 396.945 487.913 398.412 484.76C399.952 481.533 401.089 477.427 401.822 472.44C402.555 467.453 402.922 461.513 402.922 454.62C402.922 447.727 402.555 441.823 401.822 436.91C401.089 431.923 399.952 427.853 398.412 424.7C396.945 421.473 395.039 419.127 392.692 417.66C390.345 416.12 387.559 415.35 384.332 415.35C381.032 415.35 378.172 416.12 375.752 417.66C373.405 419.127 371.462 421.473 369.922 424.7C368.382 427.853 367.245 431.923 366.512 436.91C365.779 441.823 365.412 447.727 365.412 454.62C365.412 461.513 365.779 467.453 366.512 472.44C367.245 477.427 368.345 481.533 369.812 484.76C371.352 487.913 373.295 490.26 375.642 491.8C378.062 493.267 380.922 494 384.222 494ZM430.544 494V492.9H437.364C438.391 492.9 439.307 492.753 440.114 492.46C440.994 492.093 441.691 491.397 442.204 490.37C442.717 489.343 442.974 487.803 442.974 485.75V423.27C442.974 421.29 442.717 419.823 442.204 418.87C441.691 417.917 440.994 417.293 440.114 417C439.307 416.707 438.391 416.56 437.364 416.56H430.544V415.46H458.484L497.424 474.75V423.27C497.424 421.29 497.167 419.823 496.654 418.87C496.141 417.917 495.444 417.293 494.564 417C493.757 416.707 492.841 416.56 491.814 416.56H483.564V415.46H512.274V416.56H504.134C503.107 416.56 502.154 416.743 501.274 417.11C500.467 417.403 499.807 418.063 499.294 419.09C498.781 420.043 498.524 421.583 498.524 423.71V494H491.924L444.074 421.18V485.75C444.074 487.803 444.331 489.343 444.844 490.37C445.357 491.397 446.017 492.093 446.824 492.46C447.704 492.753 448.657 492.9 449.684 492.9H459.254V494H430.544Z" fill="white"/>
<g filter="url(#filter0_dd_8_179)">
<path d="M167.903 267V27H200.303V238.2H253.853V267H167.903ZM271.614 267V27H304.014V267H271.614ZM353.416 267L323.266 27H356.866L372.316 154.05L376.666 238.2H384.916L389.266 154.05L404.716 27H438.466L408.316 267H353.416ZM457.649 267V27H543.299V55.8H490.049V131.1H540.299V159.9H490.049V238.2H543.299V267H457.649Z" fill="#c73a63"/>
</g>
</svg>
