<svg width="704" height="481" viewBox="0 0 704 481" fill="none" xmlns="http://www.w3.org/2000/svg">
<path d="M156.022 376.1C147.515 376.1 140.439 374.413 134.792 371.04C129.145 367.667 124.929 362.973 122.142 356.96C119.355 350.873 117.962 343.76 117.962 335.62C117.962 327.7 119.355 320.733 122.142 314.72C124.929 308.633 129.145 303.903 134.792 300.53C140.512 297.083 147.699 295.36 156.352 295.36C161.632 295.36 166.105 295.947 169.772 297.12C173.439 298.22 176.225 299.76 178.132 301.74C180.039 303.647 180.992 305.81 180.992 308.23C180.992 310.943 179.819 313.217 177.472 315.05C175.125 316.81 171.715 317.69 167.242 317.69C167.242 312.703 166.765 308.67 165.812 305.59C164.859 302.437 163.392 300.127 161.412 298.66C159.505 297.193 156.975 296.46 153.822 296.46C149.789 296.46 146.489 297.817 143.922 300.53C141.355 303.243 139.449 307.497 138.202 313.29C137.029 319.01 136.442 326.453 136.442 335.62C136.442 344.787 137.175 352.267 138.642 358.06C140.182 363.853 142.529 368.107 145.682 370.82C148.909 373.533 153.015 374.89 158.002 374.89C161.595 374.89 164.712 374.23 167.352 372.91C170.065 371.517 172.302 369.5 174.062 366.86C175.822 364.147 177.105 360.81 177.912 356.85C178.865 357.217 179.599 357.803 180.112 358.61C180.625 359.417 180.882 360.443 180.882 361.69C180.882 363.157 180.442 364.733 179.562 366.42C178.755 368.033 177.399 369.61 175.492 371.15C173.585 372.617 171.019 373.827 167.792 374.78C164.639 375.66 160.715 376.1 156.022 376.1ZM228.729 376.1C220.369 376.1 213.439 374.413 207.939 371.04C202.439 367.667 198.295 362.937 195.509 356.85C192.795 350.763 191.439 343.65 191.439 335.51C191.439 327.37 192.795 320.293 195.509 314.28C198.295 308.267 202.439 303.61 207.939 300.31C213.512 296.937 220.479 295.25 228.839 295.25C236.759 295.25 243.469 296.937 248.969 300.31C254.542 303.61 258.759 308.303 261.619 314.39C264.479 320.403 265.909 327.48 265.909 335.62C265.909 343.76 264.442 350.873 261.509 356.96C258.649 362.973 254.469 367.667 248.969 371.04C243.469 374.413 236.722 376.1 228.729 376.1ZM228.729 375C232.029 375 234.852 374.267 237.199 372.8C239.545 371.26 241.452 368.913 242.919 365.76C244.459 362.533 245.595 358.427 246.329 353.44C247.062 348.453 247.429 342.513 247.429 335.62C247.429 328.727 247.062 322.823 246.329 317.91C245.595 312.923 244.459 308.853 242.919 305.7C241.452 302.473 239.545 300.127 237.199 298.66C234.852 297.12 232.065 296.35 228.839 296.35C225.539 296.35 222.679 297.12 220.259 298.66C217.912 300.127 215.969 302.473 214.429 305.7C212.889 308.853 211.752 312.923 211.019 317.91C210.285 322.823 209.919 328.727 209.919 335.62C209.919 342.513 210.285 348.453 211.019 353.44C211.752 358.427 212.852 362.533 214.319 365.76C215.859 368.913 217.802 371.26 220.149 372.8C222.569 374.267 225.429 375 228.729 375ZM275.051 375V373.9H283.081C284.107 373.9 285.024 373.753 285.831 373.46C286.711 373.167 287.407 372.543 287.921 371.59C288.434 370.637 288.691 369.207 288.691 367.3V304.27C288.691 302.29 288.434 300.823 287.921 299.87C287.407 298.917 286.711 298.293 285.831 298C285.024 297.707 284.107 297.56 283.081 297.56H275.051V296.46H305.081L327.851 356.41L346.551 296.46H373.611V297.56H368.991C367.964 297.56 367.011 297.743 366.131 298.11C365.251 298.403 364.554 299.063 364.041 300.09C363.601 301.043 363.381 302.583 363.381 304.71V366.75C363.381 368.803 363.601 370.343 364.041 371.37C364.554 372.397 365.251 373.093 366.131 373.46C367.011 373.753 367.964 373.9 368.991 373.9H373.611V375H338.411V373.9H339.511C341.051 373.9 342.334 373.753 343.361 373.46C344.387 373.167 345.157 372.58 345.671 371.7C346.184 370.82 346.441 369.5 346.441 367.74V300.53L323.121 375H317.841L289.791 301.08V366.75C289.791 368.803 290.084 370.343 290.671 371.37C291.331 372.397 292.284 373.093 293.531 373.46C294.777 373.753 296.244 373.9 297.931 373.9H302.331V375H275.051ZM379.787 375V373.9H384.407C385.507 373.9 386.46 373.753 387.267 373.46C388.147 373.093 388.807 372.397 389.247 371.37C389.76 370.343 390.017 368.803 390.017 366.75V304.71C390.017 302.583 389.76 301.043 389.247 300.09C388.807 299.063 388.147 298.403 387.267 298.11C386.46 297.743 385.507 297.56 384.407 297.56H379.787V296.46H417.737V297.56H413.117C412.09 297.56 411.137 297.743 410.257 298.11C409.377 298.403 408.68 299.063 408.167 300.09C407.727 301.043 407.507 302.583 407.507 304.71V366.75C407.507 368.803 407.727 370.343 408.167 371.37C408.68 372.397 409.377 373.093 410.257 373.46C411.137 373.753 412.09 373.9 413.117 373.9H417.737V375H379.787ZM423.937 375V373.9H430.757C431.784 373.9 432.701 373.753 433.507 373.46C434.387 373.093 435.084 372.397 435.597 371.37C436.111 370.343 436.367 368.803 436.367 366.75V304.27C436.367 302.29 436.111 300.823 435.597 299.87C435.084 298.917 434.387 298.293 433.507 298C432.701 297.707 431.784 297.56 430.757 297.56H423.937V296.46H451.877L490.817 355.75V304.27C490.817 302.29 490.561 300.823 490.047 299.87C489.534 298.917 488.837 298.293 487.957 298C487.151 297.707 486.234 297.56 485.207 297.56H476.957V296.46H505.667V297.56H497.527C496.501 297.56 495.547 297.743 494.667 298.11C493.861 298.403 493.201 299.063 492.687 300.09C492.174 301.043 491.917 302.583 491.917 304.71V375H485.317L437.467 302.18V366.75C437.467 368.803 437.724 370.343 438.237 371.37C438.751 372.397 439.411 373.093 440.217 373.46C441.097 373.753 442.051 373.9 443.077 373.9H452.647V375H423.937ZM554.077 376.1C544.984 376.1 537.43 374.413 531.417 371.04C525.477 367.667 521.004 362.973 517.997 356.96C515.064 350.873 513.597 343.76 513.597 335.62C513.597 327.7 515.137 320.733 518.217 314.72C521.297 308.633 525.88 303.903 531.967 300.53C538.127 297.083 545.68 295.36 554.627 295.36C560.714 295.36 565.774 295.947 569.807 297.12C573.914 298.22 576.994 299.723 579.047 301.63C581.1 303.537 582.127 305.7 582.127 308.12C582.127 310.687 580.917 312.887 578.497 314.72C576.077 316.553 572.557 317.47 567.937 317.47C567.937 312.483 567.497 308.45 566.617 305.37C565.737 302.29 564.234 300.053 562.107 298.66C560.054 297.193 557.23 296.46 553.637 296.46C548.65 296.46 544.544 297.817 541.317 300.53C538.164 303.243 535.817 307.497 534.277 313.29C532.81 319.01 532.077 326.453 532.077 335.62C532.077 344.787 532.884 352.267 534.497 358.06C536.184 363.853 538.75 368.107 542.197 370.82C545.717 373.533 550.227 374.89 555.727 374.89C557.12 374.89 558.477 374.853 559.797 374.78C561.19 374.633 562.51 374.413 563.757 374.12V346.95C563.757 344.97 563.464 343.43 562.877 342.33C562.29 341.157 561.41 340.35 560.237 339.91C559.137 339.397 557.707 339.14 555.947 339.14H554.517V338.04H589.057V339.14H587.627C586.16 339.14 584.914 339.397 583.887 339.91C582.934 340.423 582.237 341.267 581.797 342.44C581.357 343.613 581.137 345.263 581.137 347.39V370.16C576.884 372.14 572.557 373.643 568.157 374.67C563.757 375.623 559.064 376.1 554.077 376.1ZM217.897 480.1C213.35 480.1 209.5 479.66 206.347 478.78C203.193 477.827 200.627 476.58 198.647 475.04C196.74 473.5 195.347 471.813 194.467 469.98C193.587 468.073 193.147 466.203 193.147 464.37C193.147 461.95 193.733 460.043 194.907 458.65C196.08 457.183 197.62 456.12 199.527 455.46C201.433 454.8 203.45 454.47 205.577 454.47C205.577 461.217 206.2 466.35 207.447 469.87C208.767 473.39 210.527 475.81 212.727 477.13C214.927 478.377 217.457 479 220.317 479C224.717 479 228.31 477.827 231.097 475.48C233.957 473.133 235.387 469.613 235.387 464.92C235.387 461.473 234.617 458.65 233.077 456.45C231.537 454.177 229.3 452.197 226.367 450.51C223.507 448.823 220.023 447.137 215.917 445.45C212.103 443.91 208.877 442.297 206.237 440.61C203.597 438.923 201.47 437.127 199.857 435.22C198.243 433.24 197.07 431.15 196.337 428.95C195.677 426.677 195.347 424.183 195.347 421.47C195.347 416.997 196.483 413.11 198.757 409.81C201.03 406.51 204.293 403.943 208.547 402.11C212.8 400.277 217.86 399.36 223.727 399.36C228.42 399.36 232.38 399.947 235.607 401.12C238.907 402.22 241.4 403.723 243.087 405.63C244.847 407.537 245.727 409.663 245.727 412.01C245.727 414.65 244.59 416.85 242.317 418.61C240.117 420.37 236.743 421.25 232.197 421.25C232.197 416.483 231.793 412.597 230.987 409.59C230.253 406.583 229.007 404.347 227.247 402.88C225.56 401.413 223.25 400.68 220.317 400.68C218.41 400.68 216.503 401.047 214.597 401.78C212.69 402.513 211.113 403.797 209.867 405.63C208.62 407.463 207.997 410.067 207.997 413.44C207.997 416.227 208.62 418.72 209.867 420.92C211.113 423.047 213.167 425.063 216.027 426.97C218.887 428.803 222.773 430.71 227.687 432.69C232.747 434.743 236.817 436.87 239.897 439.07C243.05 441.27 245.323 443.763 246.717 446.55C248.11 449.263 248.807 452.417 248.807 456.01C248.807 460.703 247.597 464.883 245.177 468.55C242.83 472.143 239.347 474.967 234.727 477.02C230.107 479.073 224.497 480.1 217.897 480.1ZM297.64 480.1C289.28 480.1 282.35 478.413 276.85 475.04C271.35 471.667 267.206 466.937 264.42 460.85C261.706 454.763 260.35 447.65 260.35 439.51C260.35 431.37 261.706 424.293 264.42 418.28C267.206 412.267 271.35 407.61 276.85 404.31C282.423 400.937 289.39 399.25 297.75 399.25C305.67 399.25 312.38 400.937 317.88 404.31C323.453 407.61 327.67 412.303 330.53 418.39C333.39 424.403 334.82 431.48 334.82 439.62C334.82 447.76 333.353 454.873 330.42 460.96C327.56 466.973 323.38 471.667 317.88 475.04C312.38 478.413 305.633 480.1 297.64 480.1ZM297.64 479C300.94 479 303.763 478.267 306.11 476.8C308.456 475.26 310.363 472.913 311.83 469.76C313.37 466.533 314.506 462.427 315.24 457.44C315.973 452.453 316.34 446.513 316.34 439.62C316.34 432.727 315.973 426.823 315.24 421.91C314.506 416.923 313.37 412.853 311.83 409.7C310.363 406.473 308.456 404.127 306.11 402.66C303.763 401.12 300.976 400.35 297.75 400.35C294.45 400.35 291.59 401.12 289.17 402.66C286.823 404.127 284.88 406.473 283.34 409.7C281.8 412.853 280.663 416.923 279.93 421.91C279.196 426.823 278.83 432.727 278.83 439.62C278.83 446.513 279.196 452.453 279.93 457.44C280.663 462.427 281.763 466.533 283.23 469.76C284.77 472.913 286.713 475.26 289.06 476.8C291.48 478.267 294.34 479 297.64 479ZM384.222 480.1C375.862 480.1 368.932 478.413 363.432 475.04C357.932 471.667 353.789 466.937 351.002 460.85C348.289 454.763 346.932 447.65 346.932 439.51C346.932 431.37 348.289 424.293 351.002 418.28C353.789 412.267 357.932 407.61 363.432 404.31C369.005 400.937 375.972 399.25 384.332 399.25C392.252 399.25 398.962 400.937 404.462 404.31C410.035 407.61 414.252 412.303 417.112 418.39C419.972 424.403 421.402 431.48 421.402 439.62C421.402 447.76 419.935 454.873 417.002 460.96C414.142 466.973 409.962 471.667 404.462 475.04C398.962 478.413 392.215 480.1 384.222 480.1ZM384.222 479C387.522 479 390.345 478.267 392.692 476.8C395.039 475.26 396.945 472.913 398.412 469.76C399.952 466.533 401.089 462.427 401.822 457.44C402.555 452.453 402.922 446.513 402.922 439.62C402.922 432.727 402.555 426.823 401.822 421.91C401.089 416.923 399.952 412.853 398.412 409.7C396.945 406.473 395.039 404.127 392.692 402.66C390.345 401.12 387.559 400.35 384.332 400.35C381.032 400.35 378.172 401.12 375.752 402.66C373.405 404.127 371.462 406.473 369.922 409.7C368.382 412.853 367.245 416.923 366.512 421.91C365.779 426.823 365.412 432.727 365.412 439.62C365.412 446.513 365.779 452.453 366.512 457.44C367.245 462.427 368.345 466.533 369.812 469.76C371.352 472.913 373.295 475.26 375.642 476.8C378.062 478.267 380.922 479 384.222 479ZM430.544 479V477.9H437.364C438.391 477.9 439.307 477.753 440.114 477.46C440.994 477.093 441.691 476.397 442.204 475.37C442.717 474.343 442.974 472.803 442.974 470.75V408.27C442.974 406.29 442.717 404.823 442.204 403.87C441.691 402.917 440.994 402.293 440.114 402C439.307 401.707 438.391 401.56 437.364 401.56H430.544V400.46H458.484L497.424 459.75V408.27C497.424 406.29 497.167 404.823 496.654 403.87C496.141 402.917 495.444 402.293 494.564 402C493.757 401.707 492.841 401.56 491.814 401.56H483.564V400.46H512.274V401.56H504.134C503.107 401.56 502.154 401.743 501.274 402.11C500.467 402.403 499.807 403.063 499.294 404.09C498.781 405.043 498.524 406.583 498.524 408.71V479H491.924L444.074 406.18V470.75C444.074 472.803 444.331 474.343 444.844 475.37C445.357 476.397 446.017 477.093 446.824 477.46C447.704 477.753 448.657 477.9 449.684 477.9H459.254V479H430.544Z" fill="white"/>
<path d="M167.903 252V12H200.303V223.2H253.853V252H167.903ZM271.614 252V12H304.014V252H271.614ZM353.416 252L323.266 12H356.866L372.316 139.05L376.666 223.2H384.916L389.266 139.05L404.716 12H438.466L408.316 252H353.416ZM457.649 252V12H543.299V40.8H490.049V116.1H540.299V144.9H490.049V223.2H543.299V252H457.649Z" fill="#C73A63"/>
</svg>
