<svg width="800" height="800" viewBox="0 0 800 800" fill="none"
  xmlns="http://www.w3.org/2000/svg">
  <circle class="my-circle" cx="399.5" cy="400.5" r="365.5" fill="#5AAAEC"/>
  <g class="text-coming-soon">
    <path d="M204.022 545.1C195.515 545.1 188.439 543.413 182.792 540.04C177.145 536.667 172.929 531.973 170.142 525.96C167.355 519.873 165.962 512.76 165.962 504.62C165.962 496.7 167.355 489.733 170.142 483.72C172.929 477.633 177.145 472.903 182.792 469.53C188.512 466.083 195.699 464.36 204.352 464.36C209.632 464.36 214.105 464.947 217.772 466.12C221.439 467.22 224.225 468.76 226.132 470.74C228.039 472.647 228.992 474.81 228.992 477.23C228.992 479.943 227.819 482.217 225.472 484.05C223.125 485.81 219.715 486.69 215.242 486.69C215.242 481.703 214.765 477.67 213.812 474.59C212.859 471.437 211.392 469.127 209.412 467.66C207.505 466.193 204.975 465.46 201.822 465.46C197.789 465.46 194.489 466.817 191.922 469.53C189.355 472.243 187.449 476.497 186.202 482.29C185.029 488.01 184.442 495.453 184.442 504.62C184.442 513.787 185.175 521.267 186.642 527.06C188.182 532.853 190.529 537.107 193.682 539.82C196.909 542.533 201.015 543.89 206.002 543.89C209.595 543.89 212.712 543.23 215.352 541.91C218.065 540.517 220.302 538.5 222.062 535.86C223.822 533.147 225.105 529.81 225.912 525.85C226.865 526.217 227.599 526.803 228.112 527.61C228.625 528.417 228.882 529.443 228.882 530.69C228.882 532.157 228.442 533.733 227.562 535.42C226.755 537.033 225.399 538.61 223.492 540.15C221.585 541.617 219.019 542.827 215.792 543.78C212.639 544.66 208.715 545.1 204.022 545.1ZM276.729 545.1C268.369 545.1 261.439 543.413 255.939 540.04C250.439 536.667 246.295 531.937 243.509 525.85C240.795 519.763 239.439 512.65 239.439 504.51C239.439 496.37 240.795 489.293 243.509 483.28C246.295 477.267 250.439 472.61 255.939 469.31C261.512 465.937 268.479 464.25 276.839 464.25C284.759 464.25 291.469 465.937 296.969 469.31C302.542 472.61 306.759 477.303 309.619 483.39C312.479 489.403 313.909 496.48 313.909 504.62C313.909 512.76 312.442 519.873 309.509 525.96C306.649 531.973 302.469 536.667 296.969 540.04C291.469 543.413 284.722 545.1 276.729 545.1ZM276.729 544C280.029 544 282.852 543.267 285.199 541.8C287.545 540.26 289.452 537.913 290.919 534.76C292.459 531.533 293.595 527.427 294.329 522.44C295.062 517.453 295.429 511.513 295.429 504.62C295.429 497.727 295.062 491.823 294.329 486.91C293.595 481.923 292.459 477.853 290.919 474.7C289.452 471.473 287.545 469.127 285.199 467.66C282.852 466.12 280.065 465.35 276.839 465.35C273.539 465.35 270.679 466.12 268.259 467.66C265.912 469.127 263.969 471.473 262.429 474.7C260.889 477.853 259.752 481.923 259.019 486.91C258.285 491.823 257.919 497.727 257.919 504.62C257.919 511.513 258.285 517.453 259.019 522.44C259.752 527.427 260.852 531.533 262.319 534.76C263.859 537.913 265.802 540.26 268.149 541.8C270.569 543.267 273.429 544 276.729 544ZM323.051 544V542.9H331.081C332.107 542.9 333.024 542.753 333.831 542.46C334.711 542.167 335.407 541.543 335.921 540.59C336.434 539.637 336.691 538.207 336.691 536.3V473.27C336.691 471.29 336.434 469.823 335.921 468.87C335.407 467.917 334.711 467.293 333.831 467C333.024 466.707 332.107 466.56 331.081 466.56H323.051V465.46H353.081L375.851 525.41L394.551 465.46H421.611V466.56H416.991C415.964 466.56 415.011 466.743 414.131 467.11C413.251 467.403 412.554 468.063 412.041 469.09C411.601 470.043 411.381 471.583 411.381 473.71V535.75C411.381 537.803 411.601 539.343 412.041 540.37C412.554 541.397 413.251 542.093 414.131 542.46C415.011 542.753 415.964 542.9 416.991 542.9H421.611V544H386.411V542.9H387.511C389.051 542.9 390.334 542.753 391.361 542.46C392.387 542.167 393.157 541.58 393.671 540.7C394.184 539.82 394.441 538.5 394.441 536.74V469.53L371.121 544H365.841L337.791 470.08V535.75C337.791 537.803 338.084 539.343 338.671 540.37C339.331 541.397 340.284 542.093 341.531 542.46C342.777 542.753 344.244 542.9 345.931 542.9H350.331V544H323.051ZM427.787 544V542.9H432.407C433.507 542.9 434.46 542.753 435.267 542.46C436.147 542.093 436.807 541.397 437.247 540.37C437.76 539.343 438.017 537.803 438.017 535.75V473.71C438.017 471.583 437.76 470.043 437.247 469.09C436.807 468.063 436.147 467.403 435.267 467.11C434.46 466.743 433.507 466.56 432.407 466.56H427.787V465.46H465.737V466.56H461.117C460.09 466.56 459.137 466.743 458.257 467.11C457.377 467.403 456.68 468.063 456.167 469.09C455.727 470.043 455.507 471.583 455.507 473.71V535.75C455.507 537.803 455.727 539.343 456.167 540.37C456.68 541.397 457.377 542.093 458.257 542.46C459.137 542.753 460.09 542.9 461.117 542.9H465.737V544H427.787ZM471.937 544V542.9H478.757C479.784 542.9 480.701 542.753 481.507 542.46C482.387 542.093 483.084 541.397 483.597 540.37C484.111 539.343 484.367 537.803 484.367 535.75V473.27C484.367 471.29 484.111 469.823 483.597 468.87C483.084 467.917 482.387 467.293 481.507 467C480.701 466.707 479.784 466.56 478.757 466.56H471.937V465.46H499.877L538.817 524.75V473.27C538.817 471.29 538.561 469.823 538.047 468.87C537.534 467.917 536.837 467.293 535.957 467C535.151 466.707 534.234 466.56 533.207 466.56H524.957V465.46H553.667V466.56H545.527C544.501 466.56 543.547 466.743 542.667 467.11C541.861 467.403 541.201 468.063 540.687 469.09C540.174 470.043 539.917 471.583 539.917 473.71V544H533.317L485.467 471.18V535.75C485.467 537.803 485.724 539.343 486.237 540.37C486.751 541.397 487.411 542.093 488.217 542.46C489.097 542.753 490.051 542.9 491.077 542.9H500.647V544H471.937ZM602.077 545.1C592.984 545.1 585.43 543.413 579.417 540.04C573.477 536.667 569.004 531.973 565.997 525.96C563.064 519.873 561.597 512.76 561.597 504.62C561.597 496.7 563.137 489.733 566.217 483.72C569.297 477.633 573.88 472.903 579.967 469.53C586.127 466.083 593.68 464.36 602.627 464.36C608.714 464.36 613.774 464.947 617.807 466.12C621.914 467.22 624.994 468.723 627.047 470.63C629.1 472.537 630.127 474.7 630.127 477.12C630.127 479.687 628.917 481.887 626.497 483.72C624.077 485.553 620.557 486.47 615.937 486.47C615.937 481.483 615.497 477.45 614.617 474.37C613.737 471.29 612.234 469.053 610.107 467.66C608.054 466.193 605.23 465.46 601.637 465.46C596.65 465.46 592.544 466.817 589.317 469.53C586.164 472.243 583.817 476.497 582.277 482.29C580.81 488.01 580.077 495.453 580.077 504.62C580.077 513.787 580.884 521.267 582.497 527.06C584.184 532.853 586.75 537.107 590.197 539.82C593.717 542.533 598.227 543.89 603.727 543.89C605.12 543.89 606.477 543.853 607.797 543.78C609.19 543.633 610.51 543.413 611.757 543.12V515.95C611.757 513.97 611.464 512.43 610.877 511.33C610.29 510.157 609.41 509.35 608.237 508.91C607.137 508.397 605.707 508.14 603.947 508.14H602.517V507.04H637.057V508.14H635.627C634.16 508.14 632.914 508.397 631.887 508.91C630.934 509.423 630.237 510.267 629.797 511.44C629.357 512.613 629.137 514.263 629.137 516.39V539.16C624.884 541.14 620.557 542.643 616.157 543.67C611.757 544.623 607.064 545.1 602.077 545.1ZM265.897 649.1C261.35 649.1 257.5 648.66 254.347 647.78C251.193 646.827 248.627 645.58 246.647 644.04C244.74 642.5 243.347 640.813 242.467 638.98C241.587 637.073 241.147 635.203 241.147 633.37C241.147 630.95 241.733 629.043 242.907 627.65C244.08 626.183 245.62 625.12 247.527 624.46C249.433 623.8 251.45 623.47 253.577 623.47C253.577 630.217 254.2 635.35 255.447 638.87C256.767 642.39 258.527 644.81 260.727 646.13C262.927 647.377 265.457 648 268.317 648C272.717 648 276.31 646.827 279.097 644.48C281.957 642.133 283.387 638.613 283.387 633.92C283.387 630.473 282.617 627.65 281.077 625.45C279.537 623.177 277.3 621.197 274.367 619.51C271.507 617.823 268.023 616.137 263.917 614.45C260.103 612.91 256.877 611.297 254.237 609.61C251.597 607.923 249.47 606.127 247.857 604.22C246.243 602.24 245.07 600.15 244.337 597.95C243.677 595.677 243.347 593.183 243.347 590.47C243.347 585.997 244.483 582.11 246.757 578.81C249.03 575.51 252.293 572.943 256.547 571.11C260.8 569.277 265.86 568.36 271.727 568.36C276.42 568.36 280.38 568.947 283.607 570.12C286.907 571.22 289.4 572.723 291.087 574.63C292.847 576.537 293.727 578.663 293.727 581.01C293.727 583.65 292.59 585.85 290.317 587.61C288.117 589.37 284.743 590.25 280.197 590.25C280.197 585.483 279.793 581.597 278.987 578.59C278.253 575.583 277.007 573.347 275.247 571.88C273.56 570.413 271.25 569.68 268.317 569.68C266.41 569.68 264.503 570.047 262.597 570.78C260.69 571.513 259.113 572.797 257.867 574.63C256.62 576.463 255.997 579.067 255.997 582.44C255.997 585.227 256.62 587.72 257.867 589.92C259.113 592.047 261.167 594.063 264.027 595.97C266.887 597.803 270.773 599.71 275.687 601.69C280.747 603.743 284.817 605.87 287.897 608.07C291.05 610.27 293.323 612.763 294.717 615.55C296.11 618.263 296.807 621.417 296.807 625.01C296.807 629.703 295.597 633.883 293.177 637.55C290.83 641.143 287.347 643.967 282.727 646.02C278.107 648.073 272.497 649.1 265.897 649.1ZM345.64 649.1C337.28 649.1 330.35 647.413 324.85 644.04C319.35 640.667 315.206 635.937 312.42 629.85C309.706 623.763 308.35 616.65 308.35 608.51C308.35 600.37 309.706 593.293 312.42 587.28C315.206 581.267 319.35 576.61 324.85 573.31C330.423 569.937 337.39 568.25 345.75 568.25C353.67 568.25 360.38 569.937 365.88 573.31C371.453 576.61 375.67 581.303 378.53 587.39C381.39 593.403 382.82 600.48 382.82 608.62C382.82 616.76 381.353 623.873 378.42 629.96C375.56 635.973 371.38 640.667 365.88 644.04C360.38 647.413 353.633 649.1 345.64 649.1ZM345.64 648C348.94 648 351.763 647.267 354.11 645.8C356.456 644.26 358.363 641.913 359.83 638.76C361.37 635.533 362.506 631.427 363.24 626.44C363.973 621.453 364.34 615.513 364.34 608.62C364.34 601.727 363.973 595.823 363.24 590.91C362.506 585.923 361.37 581.853 359.83 578.7C358.363 575.473 356.456 573.127 354.11 571.66C351.763 570.12 348.976 569.35 345.75 569.35C342.45 569.35 339.59 570.12 337.17 571.66C334.823 573.127 332.88 575.473 331.34 578.7C329.8 581.853 328.663 585.923 327.93 590.91C327.196 595.823 326.83 601.727 326.83 608.62C326.83 615.513 327.196 621.453 327.93 626.44C328.663 631.427 329.763 635.533 331.23 638.76C332.77 641.913 334.713 644.26 337.06 645.8C339.48 647.267 342.34 648 345.64 648ZM432.222 649.1C423.862 649.1 416.932 647.413 411.432 644.04C405.932 640.667 401.789 635.937 399.002 629.85C396.289 623.763 394.932 616.65 394.932 608.51C394.932 600.37 396.289 593.293 399.002 587.28C401.789 581.267 405.932 576.61 411.432 573.31C417.005 569.937 423.972 568.25 432.332 568.25C440.252 568.25 446.962 569.937 452.462 573.31C458.035 576.61 462.252 581.303 465.112 587.39C467.972 593.403 469.402 600.48 469.402 608.62C469.402 616.76 467.935 623.873 465.002 629.96C462.142 635.973 457.962 640.667 452.462 644.04C446.962 647.413 440.215 649.1 432.222 649.1ZM432.222 648C435.522 648 438.345 647.267 440.692 645.8C443.039 644.26 444.945 641.913 446.412 638.76C447.952 635.533 449.089 631.427 449.822 626.44C450.555 621.453 450.922 615.513 450.922 608.62C450.922 601.727 450.555 595.823 449.822 590.91C449.089 585.923 447.952 581.853 446.412 578.7C444.945 575.473 443.039 573.127 440.692 571.66C438.345 570.12 435.559 569.35 432.332 569.35C429.032 569.35 426.172 570.12 423.752 571.66C421.405 573.127 419.462 575.473 417.922 578.7C416.382 581.853 415.245 585.923 414.512 590.91C413.779 595.823 413.412 601.727 413.412 608.62C413.412 615.513 413.779 621.453 414.512 626.44C415.245 631.427 416.345 635.533 417.812 638.76C419.352 641.913 421.295 644.26 423.642 645.8C426.062 647.267 428.922 648 432.222 648ZM478.544 648V646.9H485.364C486.391 646.9 487.307 646.753 488.114 646.46C488.994 646.093 489.691 645.397 490.204 644.37C490.717 643.343 490.974 641.803 490.974 639.75V577.27C490.974 575.29 490.717 573.823 490.204 572.87C489.691 571.917 488.994 571.293 488.114 571C487.307 570.707 486.391 570.56 485.364 570.56H478.544V569.46H506.484L545.424 628.75V577.27C545.424 575.29 545.167 573.823 544.654 572.87C544.141 571.917 543.444 571.293 542.564 571C541.757 570.707 540.841 570.56 539.814 570.56H531.564V569.46H560.274V570.56H552.134C551.107 570.56 550.154 570.743 549.274 571.11C548.467 571.403 547.807 572.063 547.294 573.09C546.781 574.043 546.524 575.583 546.524 577.71V648H539.924L492.074 575.18V639.75C492.074 641.803 492.331 643.343 492.844 644.37C493.357 645.397 494.017 646.093 494.824 646.46C495.704 646.753 496.657 646.9 497.684 646.9H507.254V648H478.544Z" fill="white"/>
  </g>
  <g filter="url(#filter0_dd_1_2)" class="text-live">
    <path d="M215.903 421V181H248.303V392.2H301.853V421H215.903ZM319.614 421V181H352.014V421H319.614ZM401.416 421L371.266 181H404.866L420.316 308.05L424.666 392.2H432.916L437.266 308.05L452.716 181H486.466L456.316 421H401.416ZM505.649 421V181H591.299V209.8H538.049V285.1H588.299V313.9H538.049V392.2H591.299V421H505.649Z" fill="#FFB8E7"/>
    <defs>
      <filter id="filter0_dd_1_2" x="189.003" y="154.1" width="429.196" height="293.8" filterUnits="userSpaceOnUse" color-interpolation-filters="sRGB">
        <feFlood flood-opacity="0" result="BackgroundImageFix"/>
        <feColorMatrix in="SourceAlpha" type="matrix" values="0 0 0 0 0 0 0 0 0 0 0 0 0 0 0 0 0 0 127 0" result="hardAlpha"/>
        <feOffset/>
        <feGaussianBlur stdDeviation="13.45"/>
        <feComposite in2="hardAlpha" operator="out"/>
        <feColorMatrix type="matrix" values="0 0 0 0 1 0 0 0 0 0.121569 0 0 0 0 0.901961 0 0 0 1 0"/>
        <feBlend mode="normal" in2="BackgroundImageFix" result="effect1_dropShadow_1_2"/>
        <feColorMatrix in="SourceAlpha" type="matrix" values="0 0 0 0 0 0 0 0 0 0 0 0 0 0 0 0 0 0 127 0" result="hardAlpha"/>
        <feOffset dy="4"/>
        <feGaussianBlur stdDeviation="7.3"/>
        <feComposite in2="hardAlpha" operator="out"/>
        <feColorMatrix type="matrix" values="0 0 0 0 1 0 0 0 0 0.121569 0 0 0 0 0.901961 0 0 0 1 0"/>
        <feBlend mode="normal" in2="effect1_dropShadow_1_2" result="effect2_dropShadow_1_2"/>
        <feBlend mode="normal" in="SourceGraphic" in2="effect2_dropShadow_1_2" result="shape"/>
      </filter>
    </defs>
  </g>
</svg>
