<svg xmlns="http://www.w3.org/2000/svg" width="1693" height="448" viewBox="0 0 1693 448" version="1.1">
	<path d="M 554.713 125.023 C 516.529 131.058, 483.924 161.140, 473.880 199.600 C 471.901 207.181, 471.557 210.945, 471.560 225 C 471.563 239.748, 471.844 242.513, 474.203 251.044 C 477.268 262.124, 480.712 270.302, 484.975 276.618 C 486.639 279.083, 488 281.376, 488 281.713 C 488 282.546, 499.996 297.067, 502.495 299.258 C 506.905 303.125, 518.732 311.651, 522.500 313.680 C 529.776 317.598, 541.380 321.749, 549.906 323.484 C 561.779 325.901, 588.182 325.207, 599.275 322.186 C 610.894 319.022, 628.171 309.989, 636.746 302.596 C 658.568 283.778, 670.314 259.343, 671.687 229.903 C 672.564 211.110, 669.842 196.666, 662.318 180.184 C 655.251 164.705, 638.399 146.179, 623.378 137.375 C 617.060 133.673, 605.616 128.994, 597.500 126.795 C 589.368 124.592, 564.067 123.544, 554.713 125.023 M 126.461 127.250 C 126.199 127.938, 126.100 171.700, 126.242 224.500 L 126.500 320.500 154.750 320.766 L 183 321.031 183 223.516 L 183 126 154.969 126 C 133.464 126, 126.826 126.291, 126.461 127.250 M 199.667 126.667 C 199.300 127.033, 199 138.058, 199 151.167 L 199 175 261.893 175 C 318.321 175, 324.848 174.837, 325.393 173.418 C 326.604 170.262, 326.068 128.468, 324.800 127.200 C 323.893 126.293, 308.570 126, 261.967 126 C 228.068 126, 200.033 126.300, 199.667 126.667 M 416 127.014 C 390.032 130.155, 365.997 144.265, 349.710 165.932 C 344.077 173.425, 335.755 190.330, 333.431 199 C 332.265 203.350, 331.548 210.628, 331.265 221 C 330.711 241.264, 332.634 250.683, 340.573 266.594 C 352.613 290.727, 372.559 308.456, 396.806 316.578 C 408.983 320.657, 420.665 322, 443.961 322 L 462 322 462 297.610 L 462 273.219 443.750 272.817 L 425.500 272.416 417.508 268.522 C 399.143 259.574, 388.827 243.587, 388.779 224 C 388.734 205.363, 398.790 189.041, 415.528 180.584 C 424.667 175.966, 430.220 175, 447.636 175 L 462 175 462 151.107 C 462 131.805, 461.737 127.113, 460.631 126.689 C 458.510 125.875, 423.295 126.132, 416 127.014 M 689 224 L 689 322 717.659 322 L 746.317 322 745.621 252.250 C 745.238 213.887, 745.231 181, 745.604 179.166 L 746.283 175.833 762.392 176.205 C 780.082 176.613, 782.510 177.255, 785.585 182.335 C 787.414 185.358, 787.513 188.556, 787.789 253.750 L 788.078 322 816.081 322 L 844.084 322 843.753 247.750 C 843.448 179.187, 843.281 173.002, 841.577 167 C 835.916 147.061, 823.303 134.305, 804.500 129.504 C 793.167 126.610, 781.404 126.016, 735.250 126.008 L 689 126 689 224 M 943 127.546 C 930.130 129.586, 923.779 131.549, 913.929 136.531 C 889.151 149.063, 869.144 173.719, 862.417 200.009 C 860.873 206.042, 860.510 210.906, 860.549 225 C 860.603 244.159, 861.436 248.577, 867.927 264.170 C 877.489 287.139, 900.813 308.403, 925.728 316.867 C 937.184 320.758, 947.927 322, 970.131 322 L 991 322 991 298 C 991 284.800, 990.888 273.939, 990.750 273.864 C 990.612 273.790, 982.175 273.428, 972 273.061 L 953.500 272.394 945.925 268.655 C 933.081 262.316, 923.765 251.622, 919.845 238.717 C 918.171 233.203, 917.849 229.940, 918.159 221.587 C 918.520 211.829, 918.770 210.804, 922.761 202.750 C 929.595 188.959, 942.099 179.171, 956.799 176.105 C 959.714 175.497, 968.609 175, 976.567 175 L 991.036 175 990.768 150.750 L 990.500 126.500 971 126.349 C 958.776 126.255, 948.329 126.701, 943 127.546 M 1158 150.686 L 1158 175.500 1194.250 175.500 C 1230.179 175.500, 1230.532 175.520, 1234.144 177.766 C 1238.558 180.511, 1241.324 185.795, 1240.397 189.712 C 1239.271 194.470, 1235.281 198.847, 1231.025 199.993 C 1228.604 200.645, 1213.986 201.020, 1192.802 200.973 L 1158.500 200.897 1158.263 227.199 C 1158.132 241.664, 1158.357 268.800, 1158.763 287.500 L 1159.500 321.500 1186.500 321.500 L 1213.500 321.500 1214 286 L 1214.500 250.500 1229.500 249.905 C 1247.326 249.199, 1254.006 247.935, 1263.887 243.396 C 1277.844 236.986, 1290.971 222.307, 1296.143 207.326 C 1299.305 198.169, 1299.546 178.532, 1296.602 170 C 1292.516 158.161, 1289.688 153.609, 1280.988 144.867 C 1272.171 136.008, 1267.383 132.950, 1255.978 128.894 C 1249.640 126.640, 1248.508 126.582, 1203.750 126.231 L 1158 125.873 1158 150.686 M 1309.750 126.536 C 1309.338 126.975, 1309 138.052, 1309 151.152 L 1309 174.971 1372.500 175.235 L 1436 175.500 1436 151.250 L 1436 127 1398.662 127 C 1378.126 127, 1349.889 126.716, 1335.912 126.370 C 1321.935 126.023, 1310.162 126.098, 1309.750 126.536 M 1452.478 127.750 C 1452.073 128.713, 1451.519 134.290, 1451.247 140.144 C 1450.397 158.410, 1453.232 166.689, 1466.010 183.260 C 1468.232 186.142, 1471.052 189.816, 1472.275 191.424 C 1475.750 195.992, 1485.804 208.232, 1488.355 211 C 1491.971 214.924, 1503.200 228.941, 1507.581 235 C 1513.145 242.695, 1514 245.113, 1514 253.143 C 1514 261.689, 1512.246 264.671, 1504.660 269.022 L 1499.500 271.981 1470.750 271.991 L 1442 272 1442 297.056 L 1442 322.113 1478.750 321.758 C 1519.002 321.370, 1520.190 321.221, 1533.783 314.870 C 1551.105 306.775, 1561.465 296.143, 1567.759 280 C 1571.652 270.016, 1572.378 265.686, 1572.371 252.500 C 1572.365 240.408, 1572.140 238.871, 1569.152 230.500 C 1565.451 220.132, 1562.115 214.315, 1553.013 202.361 C 1549.431 197.656, 1545.502 192.455, 1544.282 190.803 C 1543.062 189.151, 1539.687 185.079, 1536.782 181.754 C 1533.877 178.429, 1528.892 172.512, 1525.705 168.604 C 1509.396 148.609, 1508.592 146.926, 1509.535 134.750 L 1510.212 126 1481.713 126 C 1455.518 126, 1453.154 126.141, 1452.478 127.750 M 1006 151 L 1006 175 1072 175 L 1138 175 1138 151 L 1138 127 1072 127 L 1006 127 1006 151 M 561 168.935 C 533.887 177.212, 519.713 215.562, 531.223 249.500 C 532.342 252.800, 533.875 256.210, 534.629 257.079 C 535.383 257.947, 536 259.030, 536 259.486 C 536 261.708, 544.906 271.440, 550.133 274.930 C 573.690 290.661, 601.441 278.647, 612.338 248 C 623.531 216.518, 609.616 178.417, 583.715 169.624 C 578.728 167.931, 565.593 167.533, 561 168.935 M 207.280 234 C 207.768 270.064, 208.405 275.504, 213.725 289 C 220.894 307.187, 232.762 316.533, 253.838 320.588 C 259.086 321.598, 269.238 322, 289.481 322 C 314.369 322, 317.859 321.809, 318.393 320.418 C 318.727 319.548, 319 308.335, 319 295.500 L 319 272.164 296.250 271.830 C 261.619 271.322, 263.593 273.697, 263.244 232.122 C 263.103 215.364, 262.768 201.435, 262.500 201.167 C 262.232 200.899, 249.596 200.639, 234.420 200.590 L 206.827 200.500 207.280 234 M 1006 261.500 L 1006 322 1072 322 L 1138 322 1138 298.117 L 1138 274.233 1135.750 273.630 C 1134.513 273.299, 1117.188 273.021, 1097.250 273.014 L 1061 273 1061 261.500 C 1061 255.175, 1061.112 249.917, 1061.250 249.815 C 1061.388 249.714, 1078.600 249.376, 1099.500 249.065 L 1137.500 248.500 1137.768 224.750 L 1138.036 201 1072.018 201 L 1006 201 1006 261.500 M 1317.001 226.250 C 1317.002 256.164, 1318.123 269.751, 1321.575 281.661 C 1327.884 303.431, 1338.406 314.135, 1359 319.733 C 1364.570 321.247, 1370.005 321.500, 1397 321.500 L 1428.500 321.500 1428.767 296.750 L 1429.035 272 1406.767 271.998 C 1372.330 271.996, 1374.004 274.077, 1374.002 231.250 L 1374 201 1345.500 201 L 1317 201 1317.001 226.250" stroke="none" fill="black" fill-rule="evenodd"/>
</svg>