<svg xmlns="http://www.w3.org/2000/svg" width="5000" height="1909" viewBox="0 0 5000 1909" version="1.1">
	<path d="M 3498 15.073 C 3412.229 20.420, 3337.473 41.466, 3271.176 78.929 C 3216.465 109.845, 3166.941 153.762, 3128.444 205.500 C 3078.388 272.774, 3042.276 356.490, 3025.132 445 C 3017.788 482.916, 3015.081 508.431, 3014.312 547 C 3013.348 595.298, 3016.960 640.947, 3025.508 688.500 C 3043.383 787.941, 3083.688 876.463, 3142.525 945.500 C 3146.744 950.450, 3156.789 961.193, 3164.848 969.373 C 3233.823 1039.386, 3323.663 1084.799, 3428.337 1102.564 C 3487.423 1112.592, 3556.601 1113.858, 3611.500 1105.914 C 3727.913 1089.071, 3824.479 1030.096, 3895.374 932.545 C 3910.565 911.642, 3937 868.927, 3937 865.282 C 3937 864.141, 3916.525 853.206, 3911.413 851.617 C 3909.627 851.062, 3908.340 852.451, 3902.503 861.234 C 3871.830 907.387, 3836.019 945.647, 3798.088 972.790 C 3737.146 1016.399, 3662.245 1037.899, 3571 1037.975 C 3492.558 1038.040, 3428.267 1018.265, 3369 975.843 C 3344.960 958.635, 3313.825 926.117, 3294.552 898.089 C 3238.283 816.258, 3208.225 706.874, 3205.355 573.500 C 3202.830 456.146, 3222.152 348.453, 3260.256 267.500 C 3291.240 201.674, 3331.261 153.949, 3383.449 120.593 C 3445.177 81.140, 3520.376 66.023, 3602.412 76.576 C 3743.739 94.756, 3847.590 190.531, 3885.340 337.500 L 3888.679 350.500 3902.978 350.778 L 3917.277 351.057 3916.662 340.778 C 3916.323 335.125, 3913.974 263.450, 3911.441 181.500 C 3908.908 99.550, 3906.639 31.488, 3906.399 30.250 C 3905.971 28.046, 3905.678 28, 3892.119 28 L 3878.276 28 3877.616 35.281 C 3876.043 52.644, 3870.092 68.960, 3862.602 76.450 C 3856.666 82.386, 3850.693 84.944, 3839.783 86.221 C 3822.143 88.285, 3804.304 83.577, 3770 67.803 C 3706.356 38.537, 3677.950 28.989, 3631 21.081 C 3593.916 14.836, 3540.504 12.423, 3498 15.073 M 1528 35 C 1528 46.305, 1528.268 49, 1529.394 49 C 1533.770 49, 1552.657 51.278, 1559.500 52.631 C 1584.601 57.594, 1606.794 69.413, 1619.592 84.634 C 1635.114 103.095, 1641.025 115.855, 1661.555 175.218 C 1679.110 225.979, 1686.153 246.358, 1766.015 477.500 C 1800.220 576.500, 1836.670 682.025, 1847.014 712 C 1857.358 741.975, 1884.803 821.400, 1908.003 888.500 C 1961.358 1042.819, 1969.227 1065.619, 1974.440 1081 L 1978.676 1093.500 1993.069 1093.500 L 2007.462 1093.500 2035.579 1026 C 2063.918 957.967, 2116.699 831.430, 2231.001 557.500 C 2265.196 475.550, 2293.638 407.375, 2294.206 406 C 2294.965 404.163, 2295.375 403.898, 2295.754 405 C 2304.258 429.720, 2349.285 559.662, 2420.674 765.500 C 2453.329 859.655, 2472.703 915.553, 2486.009 954 C 2490.863 968.025, 2503.759 1005.259, 2514.667 1036.743 L 2534.500 1093.985 2548.614 1093.993 L 2562.728 1094 2564.321 1089.750 C 2565.196 1087.412, 2577.674 1053.775, 2592.048 1015 C 2606.423 976.225, 2621.781 934.825, 2626.177 923 C 2633.109 904.355, 2656.062 842.542, 2676.493 787.500 C 2679.963 778.150, 2712.957 689.275, 2749.812 590 C 2822.780 393.449, 2818.934 403.807, 2854.497 308 C 2868.073 271.425, 2882.020 233.850, 2885.491 224.500 C 2906.940 166.716, 2911.890 154.086, 2918.022 141.500 C 2942.947 90.342, 2975.795 64.254, 3028 54.159 C 3037.414 52.338, 3042.457 51.611, 3060.750 49.436 L 3066 48.812 3066 34.906 L 3066 21 2896 21 L 2726 21 2726 34.896 L 2726 48.792 2734.250 49.448 C 2771.209 52.387, 2792.190 57.065, 2807.413 65.763 C 2818.749 72.239, 2825.384 79.633, 2829.666 90.559 C 2832.120 96.821, 2832.390 98.772, 2832.425 110.500 C 2832.455 120.451, 2831.914 126.080, 2830.121 134.500 C 2826.694 150.587, 2818.252 180.258, 2809.634 206.500 C 2799.449 237.513, 2604.662 773.082, 2603.889 772.198 C 2603.553 771.814, 2576.386 694.325, 2543.517 600 C 2510.648 505.675, 2477.547 410.725, 2469.958 389 C 2392.065 165.991, 2391.943 165.634, 2386.055 144.726 C 2381.024 126.859, 2378.993 115.128, 2379.024 104.119 C 2379.068 88.869, 2382.144 80.775, 2391.451 71.420 C 2404.575 58.230, 2428.270 51.101, 2464.750 49.369 L 2479 48.692 2479 34.846 L 2479 21 2283 21 L 2087 21 2087 35 C 2087 47.685, 2087.165 49, 2088.756 49 C 2092.913 49, 2116.168 52.070, 2123.500 53.587 C 2132.173 55.381, 2146.110 60.020, 2152.500 63.240 C 2172.801 73.469, 2188.379 91.736, 2197.850 116.416 C 2199.978 121.962, 2214.864 164.449, 2230.931 210.831 L 2260.142 295.162 2254.634 308.831 C 2251.605 316.349, 2246.901 327.900, 2244.182 334.500 C 2241.463 341.100, 2233.156 361.350, 2225.723 379.500 C 2212.519 411.737, 2080.135 734.813, 2065.505 770.500 C 2061.447 780.400, 2057.635 789.800, 2057.035 791.389 C 2056.435 792.977, 2055.733 794.067, 2055.476 793.809 C 2055.218 793.551, 2053.021 787.527, 2050.594 780.420 C 2046.766 769.216, 1968.797 544.337, 1930.830 435 C 1923.669 414.375, 1913.994 386.475, 1909.331 373 C 1904.669 359.525, 1897.016 337.475, 1892.326 324 C 1881.955 294.202, 1868.513 255.416, 1862.002 236.500 C 1859.351 228.800, 1854.166 213.950, 1850.479 203.500 C 1832.271 151.893, 1827 131.751, 1827 113.784 C 1827 97.010, 1831.567 85.366, 1842.450 74.391 C 1856.375 60.350, 1879.667 52.430, 1915.750 49.469 L 1924 48.792 1924 34.896 L 1924 21 1726 21 L 1528 21 1528 35 M 1076.669 24.664 C 1076.301 25.032, 1076 31.325, 1076 38.648 C 1076 54.196, 1073.782 52.267, 1093.500 53.873 C 1118.646 55.922, 1135.593 60.044, 1149.858 67.580 C 1168.410 77.380, 1177.934 89.521, 1183.848 110.911 L 1186.500 120.500 1186.787 550 C 1186.972 828.531, 1186.726 982.151, 1186.086 987.042 C 1181.386 1022.948, 1159.832 1043.994, 1118.614 1052.925 C 1108.688 1055.075, 1090.380 1057.447, 1075.250 1058.543 L 1066 1059.212 1066 1073.106 L 1066 1087 1267.500 1087 L 1469 1087 1469 1073.119 L 1469 1059.238 1459.250 1058.581 C 1418.224 1055.818, 1394.532 1049.999, 1376.809 1038.330 C 1367.660 1032.307, 1361.676 1025.309, 1356.487 1014.568 C 1350.983 1003.173, 1349.251 995.589, 1347.944 977.150 C 1347.242 967.252, 1347.017 827.082, 1347.252 545 C 1347.573 157.628, 1347.720 126.910, 1349.289 119.322 C 1354.123 95.950, 1364.526 80.420, 1382.524 69.709 C 1396.211 61.564, 1421.441 55.019, 1445.052 53.490 C 1460.618 52.481, 1459.101 54.168, 1458.778 38.224 L 1458.500 24.500 1267.919 24.247 C 1163.100 24.109, 1077.037 24.296, 1076.669 24.664 M 124.430 1567.046 C 121.092 1567.482, 114.474 1568.762, 109.723 1569.891 C 70.788 1579.138, 42.770 1604.286, 33.844 1638 C 32.035 1644.829, 31.586 1649.252, 31.555 1660.500 C 31.508 1677.774, 33.365 1686.769, 39.710 1700 C 43.569 1708.047, 45.584 1710.811, 52.883 1718.069 C 70.141 1735.231, 90.576 1744.577, 137.956 1756.976 C 150.355 1760.221, 165.225 1764.516, 171 1766.521 C 202.552 1777.477, 214.310 1790.782, 210.961 1811.742 C 208.548 1826.850, 197.960 1837.898, 180.244 1843.793 C 173.184 1846.143, 170.999 1846.376, 155.500 1846.435 C 137.318 1846.505, 129.803 1845.411, 113.625 1840.343 C 97.431 1835.270, 79.272 1824.997, 63.334 1811.892 C 59.392 1808.652, 55.930 1806, 55.639 1806 C 55.033 1806, 21 1846.735, 21 1847.461 C 21 1847.724, 24.487 1850.311, 28.750 1853.210 C 61.090 1875.206, 89.719 1887.362, 124 1893.654 C 137.668 1896.163, 172.959 1896.178, 185.500 1893.680 C 223.540 1886.104, 249.035 1868.407, 262.111 1840.504 C 268.464 1826.947, 270.432 1817.128, 270.430 1799 C 270.429 1787.201, 270.001 1781.948, 268.639 1777 C 260.873 1748.789, 242.613 1731.317, 205.978 1717.039 C 193.649 1712.235, 180.847 1708.452, 155.500 1702.124 C 122.021 1693.766, 109.602 1688.592, 99.839 1678.936 C 92.933 1672.107, 90.995 1666.649, 91.010 1654.068 C 91.018 1647.178, 91.481 1644.508, 93.378 1640.435 C 104.565 1616.411, 140.486 1608.408, 180 1621.135 C 193.552 1625.500, 214.086 1636.982, 224.785 1646.177 C 226.591 1647.730, 228.448 1649, 228.911 1649 C 229.770 1649, 258.714 1610.908, 259.590 1608.626 C 260.633 1605.908, 238.151 1589.993, 223.170 1582.842 C 195.878 1569.816, 154.230 1563.154, 124.430 1567.046 M 3968.500 1567.583 C 3936.010 1572.600, 3908.610 1588.422, 3893.314 1611 C 3881.866 1627.899, 3876.928 1648.333, 3879.012 1670.178 C 3880.549 1686.292, 3884.319 1697.709, 3891.667 1708.500 C 3906.526 1730.323, 3933.530 1744.054, 3989.024 1758.006 C 4034.735 1769.498, 4052.642 1779.641, 4057.653 1796.878 C 4061.023 1808.471, 4056.740 1823.468, 4047.492 1832.456 C 4041.447 1838.331, 4030.606 1843.523, 4020.050 1845.600 C 4009.845 1847.607, 3987.790 1847.050, 3976 1844.487 C 3952.645 1839.409, 3931.815 1829.018, 3910.308 1811.717 C 3903.031 1805.862, 3902.799 1805.759, 3901.060 1807.606 C 3898.453 1810.374, 3869.499 1845.298, 3868.698 1846.640 C 3867.983 1847.838, 3879.355 1856.537, 3891 1863.700 C 3913.985 1877.839, 3938.635 1887.390, 3965.737 1892.660 C 3978.059 1895.056, 3981.855 1895.343, 4002 1895.398 C 4026.230 1895.465, 4033.884 1894.500, 4050.500 1889.287 C 4071.195 1882.794, 4091.556 1868.679, 4101.888 1853.663 C 4106.720 1846.640, 4112.720 1833.454, 4115.158 1824.500 C 4118.137 1813.562, 4118.417 1785.940, 4115.650 1776.058 C 4108.875 1751.867, 4093.976 1735.911, 4065.592 1722.451 C 4050.701 1715.389, 4034.916 1710.179, 4008.302 1703.539 C 3970.597 1694.131, 3957.599 1689.104, 3948.224 1680.302 C 3941.207 1673.715, 3938.727 1667.817, 3938.217 1656.500 C 3937.683 1644.682, 3939.989 1638.150, 3947.357 1630.603 C 3971.649 1605.721, 4025.776 1611.304, 4067.888 1643.036 C 4072.241 1646.316, 4076.063 1649, 4076.382 1649 C 4077.750 1649, 4107.107 1608.721, 4106.635 1607.491 C 4105.929 1605.651, 4097.191 1598.788, 4087.500 1592.462 C 4072.539 1582.696, 4052.144 1574.347, 4033.590 1570.395 C 4013.543 1566.124, 3985.730 1564.923, 3968.500 1567.583 M 4278 1729.500 L 4278 1893 4399.500 1893 L 4521 1893 4521 1866.500 L 4521 1840 4429 1840 L 4337 1840 4337 1797.006 L 4337 1754.012 4416.750 1753.756 L 4496.500 1753.500 4496.500 1727.500 L 4496.500 1701.500 4416.750 1701.244 L 4337 1700.988 4337 1659.494 L 4337 1618 4427.500 1618 L 4518 1618 4518 1592 L 4518 1566 4398 1566 L 4278 1566 4278 1729.500 M 563.460 1570.038 C 488.935 1575.065, 428.681 1628.081, 412.912 1702.500 C 410.234 1715.138, 409.185 1744.243, 410.931 1757.503 C 418.020 1811.370, 449.444 1856.855, 496.304 1881.075 C 530.754 1898.881, 570.764 1904.008, 612.467 1895.960 C 644.292 1889.819, 673.254 1874.408, 698.257 1850.311 L 705.013 1843.799 691.757 1829.207 C 684.466 1821.182, 676.644 1812.572, 674.377 1810.074 L 670.253 1805.532 665.877 1809.269 C 643.402 1828.458, 625.229 1838.775, 604.500 1844.112 C 596.803 1846.094, 592.967 1846.434, 578 1846.465 C 563.069 1846.495, 559.207 1846.170, 551.693 1844.255 C 521.151 1836.471, 496.363 1816.465, 482.006 1788.013 C 464.965 1754.245, 464.796 1712.263, 481.564 1678.733 C 487.916 1666.032, 493.218 1658.705, 503.488 1648.435 C 518.022 1633.901, 536.012 1624.437, 556.812 1620.381 C 566.686 1618.456, 587.265 1618.446, 597.088 1620.362 C 619.674 1624.767, 641.166 1636.297, 660.978 1654.640 L 666.797 1660.027 683.977 1639.499 C 693.426 1628.208, 701.009 1618.562, 700.828 1618.063 C 700.184 1616.283, 684.332 1603.706, 674.670 1597.309 C 651.125 1581.720, 623.099 1572.183, 595.972 1570.527 C 576.588 1569.345, 574.260 1569.310, 563.460 1570.038 M 857.863 1569.250 C 857.480 1569.951, 857.305 1889.757, 857.687 1891.250 C 858.100 1892.863, 860.278 1893, 885.560 1893 L 912.986 1893 913.243 1825.250 L 913.500 1757.500 989.750 1757.244 L 1066 1756.988 1066 1825.010 L 1066 1893.032 1093.750 1892.766 L 1121.500 1892.500 1121.500 1731 L 1121.500 1569.500 1093.750 1569.234 L 1066 1568.968 1066 1636.984 L 1066 1705 989.500 1705 L 913 1705 913 1637 L 913 1569 885.500 1569 C 870.375 1569, 857.938 1569.112, 857.863 1569.250 M 1415.658 1571.750 C 1414.892 1573.263, 1411.096 1581.700, 1407.223 1590.500 C 1403.350 1599.300, 1394.242 1620, 1386.982 1636.500 C 1379.723 1653, 1369.508 1676.175, 1364.283 1688 C 1359.058 1699.825, 1352.404 1714.900, 1349.496 1721.500 C 1326.138 1774.514, 1294.243 1846.798, 1285.202 1867.212 C 1279.182 1880.804, 1274.500 1892.166, 1274.795 1892.462 C 1275.091 1892.758, 1288.335 1893, 1304.225 1893 L 1333.117 1893 1338.369 1881.750 C 1341.258 1875.563, 1349.189 1858.237, 1355.994 1843.250 L 1368.366 1816 1444.497 1816 L 1520.627 1816 1536.250 1854.250 L 1551.872 1892.500 1581.436 1892.765 C 1597.696 1892.911, 1611 1892.770, 1611 1892.453 C 1611 1891.947, 1576.825 1814.096, 1535.517 1720.500 C 1508.578 1659.462, 1489.034 1615.145, 1479.509 1593.500 C 1474.185 1581.400, 1469.362 1570.938, 1468.792 1570.250 C 1468.012 1569.310, 1461.465 1569, 1442.403 1569 L 1417.051 1569 1415.658 1571.750 M 1760.462 1570.250 C 1760.200 1570.938, 1760.102 1643.725, 1760.243 1732 L 1760.500 1892.500 1788.250 1892.766 L 1816 1893.032 1816 1827.016 L 1816 1761 1897.500 1761 L 1979 1761 1979 1734.500 L 1979 1708 1897.500 1708 L 1816 1708 1816 1665 L 1816 1622 1908 1622 L 2000 1622 2000 1595.500 L 2000 1569 1880.469 1569 C 1785.764 1569, 1760.838 1569.260, 1760.462 1570.250 M 2163.671 1569.663 C 2163.302 1570.032, 2163 1642.933, 2163 1731.667 L 2163 1893 2191 1893 L 2219 1893 2219 1827 L 2219 1761 2300.500 1761 L 2382 1761 2382 1734.500 L 2382 1708 2300.500 1708 L 2219 1708 2219 1665 L 2219 1622 2311.017 1622 L 2403.033 1622 2402.767 1595.750 L 2402.500 1569.500 2283.421 1569.246 C 2217.927 1569.106, 2164.040 1569.294, 2163.671 1569.663 M 2559 1731 L 2559 1893.032 2586.750 1892.766 L 2614.500 1892.500 2614.757 1824.750 L 2615.014 1757 2691 1757 L 2766.986 1757 2767.243 1824.750 L 2767.500 1892.500 2795.250 1892.766 L 2823 1893.032 2823 1731 L 2823 1568.968 2795.250 1569.234 L 2767.500 1569.500 2767.243 1637.250 L 2766.986 1705 2691 1705 L 2615.014 1705 2614.757 1637.250 L 2614.500 1569.500 2586.750 1569.234 L 2559 1568.968 2559 1731 M 3130.629 1572.250 C 3129.861 1574.037, 3123.067 1589.450, 3115.532 1606.500 C 3107.997 1623.550, 3095.300 1652.350, 3087.316 1670.500 C 3079.331 1688.650, 3066.142 1718.575, 3058.006 1737 C 2997.991 1872.915, 2990 1891.152, 2990 1892.197 C 2990 1892.638, 3003.197 1893, 3019.328 1893 L 3048.655 1893 3066.078 1854.503 L 3083.500 1816.006 3159.810 1816.253 L 3236.121 1816.500 3249.630 1849.500 C 3257.060 1867.650, 3264.070 1884.862, 3265.208 1887.750 L 3267.278 1893 3296.639 1893 C 3316.155 1893, 3326 1892.654, 3326 1891.968 C 3326 1891.400, 3319.201 1875.538, 3310.892 1856.718 C 3302.582 1837.898, 3292.413 1814.850, 3288.293 1805.500 C 3284.174 1796.150, 3277.523 1781.075, 3273.514 1772 C 3263.277 1748.825, 3252.525 1724.451, 3243.517 1704 C 3232.298 1678.526, 3220.237 1651.185, 3202.515 1611.052 C 3193.905 1591.555, 3186.240 1574.117, 3185.482 1572.302 L 3184.102 1569 3158.064 1569 L 3132.027 1569 3130.629 1572.250 M 3448.298 1679.234 C 3448.632 1776.148, 3448.875 1790.449, 3450.303 1797.341 C 3459.419 1841.320, 3478.523 1868.673, 3511.500 1884.957 C 3517 1887.673, 3524.425 1890.842, 3528 1891.999 C 3552.818 1900.033, 3588.941 1901.702, 3616.083 1896.069 C 3677.334 1883.359, 3712.377 1840.517, 3717.979 1771.500 C 3718.752 1761.975, 3719.017 1727.456, 3718.808 1663.500 L 3718.500 1569.500 3691 1569.500 L 3663.500 1569.500 3662.943 1671.500 C 3662.348 1780.735, 3662.534 1776.692, 3657.364 1792.479 C 3653.540 1804.158, 3644.175 1819.168, 3636.814 1825.417 C 3620.156 1839.560, 3597.274 1845.762, 3571.922 1843.005 C 3560.571 1841.771, 3546.697 1837.649, 3539.158 1833.272 C 3531.029 1828.552, 3518.920 1815.484, 3514.815 1807 C 3510.821 1798.745, 3507.535 1789.231, 3505.805 1780.910 C 3505.039 1777.223, 3504.493 1742.706, 3504.090 1672.500 L 3503.500 1569.500 3475.709 1569.234 L 3447.918 1568.968 3448.298 1679.234 M 4694.462 1570.250 C 4694.200 1570.938, 4694.102 1643.725, 4694.243 1732 L 4694.500 1892.500 4722.250 1892.766 L 4750 1893.032 4750 1778.357 L 4750 1663.682 4756.250 1671.742 C 4765.424 1683.573, 4807.921 1738.600, 4812 1743.930 C 4813.925 1746.446, 4820.038 1754.353, 4825.585 1761.502 C 4831.132 1768.651, 4848.198 1790.700, 4863.510 1810.500 C 4878.822 1830.300, 4899.450 1856.963, 4909.349 1869.750 L 4927.349 1893 4951.677 1893 L 4976.006 1893 4975.753 1731.250 L 4975.500 1569.500 4947.750 1569.234 L 4920 1568.968 4920 1680.120 L 4920 1791.271 4913.750 1783.255 C 4897.189 1762.014, 4855.218 1708.301, 4825.644 1670.500 C 4807.571 1647.400, 4790.158 1625.125, 4786.948 1621 C 4765.574 1593.537, 4749.529 1573.178, 4747.740 1571.250 C 4745.680 1569.031, 4745.305 1569, 4720.294 1569 C 4700.929 1569, 4694.825 1569.295, 4694.462 1570.250 M 1430.778 1667.813 C 1423.253 1685.241, 1410.811 1714.013, 1403.129 1731.750 L 1389.161 1764 1444.446 1764 L 1499.731 1764 1494.460 1751.750 C 1491.561 1745.013, 1483.245 1725.775, 1475.980 1709 C 1468.715 1692.225, 1458.720 1669.050, 1453.768 1657.500 C 1448.816 1645.950, 1444.696 1636.416, 1444.612 1636.313 C 1444.528 1636.210, 1438.303 1650.385, 1430.778 1667.813 M 3153.508 1642.528 C 3152.043 1645.812, 3146.874 1657.725, 3142.020 1669 C 3132.526 1691.053, 3108.037 1747.619, 3104.788 1755 C 3103.699 1757.475, 3102.412 1760.513, 3101.929 1761.750 L 3101.050 1764 3156.141 1764 C 3208.144 1764, 3211.204 1763.902, 3210.707 1762.250 C 3210.418 1761.287, 3201.791 1741.150, 3191.537 1717.500 C 3181.283 1693.850, 3169.500 1666.625, 3165.352 1657 C 3161.205 1647.375, 3157.442 1638.837, 3156.991 1638.028 C 3156.393 1636.953, 3155.452 1638.169, 3153.508 1642.528" stroke="none" fill="black" fill-rule="evenodd"/>
</svg>