<svg xmlns="http://www.w3.org/2000/svg" width="2000" height="459" viewBox="0 0 2000 459" version="1.1">
	<path d="M 1853.685 28.250 C 1850.969 30.997, 1839.978 50.273, 1840.057 52.150 C 1840.088 52.893, 1843.158 58.675, 1846.880 65 L 1853.645 76.500 1868.274 76.776 L 1882.903 77.053 1888.355 67.776 C 1891.354 62.674, 1894.587 56.858, 1895.541 54.851 L 1897.274 51.202 1890.522 39.575 C 1886.808 33.180, 1882.951 27.509, 1881.951 26.974 C 1880.950 26.438, 1874.681 26, 1868.020 26 C 1856.786 26, 1855.748 26.163, 1853.685 28.250 M 1803.236 57.750 C 1799.561 63.067, 1791 78.753, 1791 80.170 C 1791 81.967, 1803.698 104.188, 1805.311 105.213 C 1805.965 105.629, 1812.259 105.976, 1819.298 105.985 C 1834.516 106.003, 1833.439 106.721, 1842.344 90.627 L 1848.188 80.065 1842.942 70.783 C 1840.057 65.677, 1836.617 60.038, 1835.298 58.250 L 1832.898 55 1819.017 55 L 1805.136 55 1803.236 57.750 M 1896.086 67.201 C 1891.849 74.538, 1889.226 80.136, 1889.548 81.151 C 1890.593 84.444, 1902.024 103.517, 1903.692 104.750 C 1906.261 106.650, 1930.379 106.478, 1932.312 104.546 C 1934.430 102.427, 1946.003 81.576, 1945.984 79.913 C 1945.975 79.136, 1942.920 73.325, 1939.195 67 L 1932.422 55.500 1917.792 55.224 L 1903.162 54.947 1896.086 67.201 M 104.636 110.646 C 103.352 116.045, 45.421 413.342, 43.527 424.250 L 43.050 427 60.980 427 L 78.909 427 79.548 423.750 C 79.899 421.962, 89.491 372.350, 100.864 313.500 C 116.432 232.934, 121.883 206.500, 122.926 206.500 C 123.736 206.500, 143.678 242.331, 170.906 292.709 C 196.533 340.124, 218.002 379.417, 218.616 380.025 C 220.049 381.447, 216.537 387.696, 269.490 289.500 C 294.107 243.850, 314.625 206.089, 315.087 205.587 C 315.569 205.063, 316.309 205.701, 316.827 207.087 C 317.323 208.414, 326.821 256.750, 337.933 314.500 C 349.045 372.250, 358.574 421.188, 359.107 423.250 L 360.077 427 377.539 427 L 395 427 395 424.739 C 395 422.501, 335.012 113.684, 333.276 106.984 L 332.375 103.509 328.339 110.504 C 326.119 114.352, 300.976 160.604, 272.465 213.288 C 236.796 279.200, 220.176 308.985, 219.179 308.788 C 218.382 308.629, 193.549 263.861, 163.996 209.303 C 134.443 154.744, 109.364 108.685, 108.265 106.949 L 106.266 103.793 104.636 110.646 M 590.744 110.551 C 586.549 118.885, 452 424.718, 452 425.919 C 452 426.722, 457.350 426.966, 470.675 426.772 L 489.350 426.500 500.992 398.733 C 507.395 383.462, 513.078 370.522, 513.623 369.977 C 514.263 369.337, 541.944 369.078, 592.030 369.244 L 669.448 369.500 678.712 392 C 683.807 404.375, 689.157 417.313, 690.600 420.750 L 693.225 427 712.180 427 L 731.135 427 730.427 424.750 C 729.550 421.961, 596.290 111.436, 594.518 108.051 C 593.239 105.608, 593.229 105.615, 590.744 110.551 M 799.691 110.018 C 798.860 113.126, 798.777 423.256, 799.607 425.418 C 800.127 426.774, 802.625 427, 817.107 427 L 834 427 834 310 C 834 222.598, 834.290 193, 835.148 193 C 835.780 193, 838.592 195.450, 841.398 198.444 C 844.204 201.439, 897.347 257.007, 959.492 321.929 C 1047.621 413.993, 1072.636 439.587, 1073.172 438.234 C 1073.550 437.280, 1073.891 365.528, 1073.930 278.785 C 1073.999 123.843, 1073.966 121.052, 1072.066 120.035 C 1070.014 118.937, 1045.059 118.609, 1041.250 119.630 L 1039 120.233 1039 237.700 C 1039 331.216, 1038.745 355.087, 1037.750 354.775 C 1037.063 354.559, 991.376 307.159, 936.225 249.441 C 789.157 95.529, 800.475 107.087, 799.691 110.018 M 1801.647 117.223 C 1799.798 120.125, 1796.534 125.763, 1794.393 129.750 L 1790.500 137 1794.393 144.250 C 1796.534 148.238, 1799.798 153.875, 1801.647 156.777 L 1805.009 162.053 1819.645 161.777 L 1834.281 161.500 1841.271 149.233 L 1848.261 136.965 1841.211 124.733 L 1834.161 112.500 1819.585 112.223 L 1805.009 111.947 1801.647 117.223 M 1897.709 121.224 C 1888.540 136.864, 1888.683 136.480, 1890.610 140.250 C 1891.523 142.037, 1894.718 147.674, 1897.709 152.776 L 1903.148 162.053 1917.808 161.776 L 1932.467 161.500 1936.484 154.817 C 1938.693 151.141, 1941.850 145.629, 1943.500 142.567 L 1946.500 137 1943.500 131.433 C 1941.850 128.371, 1938.693 122.859, 1936.484 119.183 L 1932.467 112.500 1917.808 112.224 L 1903.148 111.947 1897.709 121.224 M 1272 114.611 C 1246.556 119.221, 1232.617 124.521, 1215.008 136.279 C 1199.779 146.448, 1180.959 168.253, 1171.869 186.260 C 1145.492 238.512, 1145.595 309.641, 1172.122 361.057 C 1186.126 388.200, 1207.388 408.993, 1233.454 421.035 C 1261.900 434.177, 1298.631 436.588, 1330.811 427.426 C 1341.674 424.333, 1361.425 414.604, 1370 408.123 C 1379.231 401.146, 1394.591 384.892, 1400.829 375.500 C 1434.869 324.249, 1438.606 244.835, 1409.680 187.406 C 1390.811 149.943, 1359.674 125.319, 1320 116.483 C 1312.731 114.864, 1278.065 113.512, 1272 114.611 M 1504.853 117.670 C 1503.947 117.910, 1502.940 119.096, 1502.616 120.304 C 1502.292 121.512, 1502.021 190.530, 1502.014 273.679 C 1502.001 409.792, 1502.157 425.014, 1503.571 426.429 C 1504.863 427.721, 1507.842 427.997, 1520.321 427.985 C 1528.670 427.976, 1536.175 427.543, 1537 427.021 C 1538.317 426.188, 1538.561 409.365, 1539 288.787 L 1539.500 151.500 1588.500 151.541 C 1641.833 151.585, 1645.769 151.894, 1661 157.225 C 1678.066 163.198, 1688.244 171.596, 1694.962 185.248 C 1700.022 195.531, 1701.379 202.692, 1700.693 215.500 C 1699.514 237.511, 1689.231 253.669, 1669.817 264.017 C 1656.267 271.239, 1645.334 273.613, 1619.337 274.977 C 1608.427 275.549, 1598.242 276.279, 1596.704 276.598 L 1593.908 277.179 1595.778 280.340 C 1599.183 286.097, 1701.102 422.446, 1704.096 425.250 L 1707.032 428 1725.266 427.986 C 1735.295 427.979, 1744.524 427.698, 1745.776 427.363 L 1748.052 426.753 1746.136 423.506 C 1745.083 421.720, 1724.322 393.829, 1700.001 361.524 C 1663.546 313.101, 1656.021 302.571, 1657.141 301.548 C 1657.888 300.865, 1661.650 299.485, 1665.500 298.481 C 1686.093 293.110, 1699.752 285.468, 1713.632 271.552 C 1722.449 262.711, 1724.357 260.167, 1728.326 251.946 C 1741.619 224.420, 1740.848 191.394, 1726.297 165 C 1721.269 155.880, 1704.919 139.861, 1694.856 134.198 C 1678.668 125.087, 1657.826 119.524, 1634.119 117.988 C 1619.915 117.068, 1508.155 116.792, 1504.853 117.670 M 1854.311 140.787 C 1852.890 141.690, 1840 163.928, 1840 165.475 C 1840 166.952, 1852.994 189.321, 1854.383 190.235 C 1854.997 190.639, 1861.350 190.969, 1868.500 190.969 C 1875.650 190.969, 1881.997 190.639, 1882.605 190.235 C 1883.826 189.423, 1897 166.771, 1897 165.483 C 1897 164.240, 1884.958 143.100, 1883.312 141.454 C 1882.184 140.327, 1878.892 140.003, 1868.679 140.015 C 1861.430 140.024, 1854.965 140.371, 1854.311 140.787 M 1273.500 148.657 C 1259.137 150.943, 1245.753 156.042, 1234.432 163.541 C 1211.989 178.407, 1197.330 202.553, 1189.836 237 C 1187.791 246.399, 1187.551 250.173, 1187.551 273 C 1187.551 301.007, 1188.646 309.094, 1195.028 328.211 C 1204.243 355.817, 1221.948 377.487, 1244.500 388.765 C 1271.485 402.259, 1309.424 402.289, 1336.503 388.836 C 1379.951 367.252, 1402.395 309.098, 1392.402 244 C 1385.767 200.782, 1364.344 169.034, 1332.900 155.823 C 1319.504 150.194, 1312.023 148.799, 1293.500 148.476 C 1284.150 148.313, 1275.150 148.394, 1273.500 148.657 M 591.284 189.208 C 589.117 191.925, 528.869 334.978, 529.477 335.963 C 530.321 337.329, 653.626 337.414, 654.470 336.049 C 655.044 335.120, 594.792 190.392, 593.147 188.747 C 592.689 188.289, 591.851 188.497, 591.284 189.208" stroke="none" fill="black" fill-rule="evenodd"/>
</svg>