<svg xmlns="http://www.w3.org/2000/svg" width="2040" height="702" viewBox="0 0 2040 702" version="1.1">
	<path d="M 1892.313 1.039 C 1838.411 5.464, 1798.709 35.016, 1785.519 80.531 C 1781.726 93.619, 1780.305 110.354, 1781.825 124.025 C 1787.086 171.335, 1820.302 204.948, 1891.500 235.008 C 1918.420 246.374, 1939.236 258.481, 1949.886 268.967 C 1961.077 279.986, 1965.071 289.022, 1965.149 303.500 C 1965.246 321.654, 1956.443 334.625, 1938.722 342.437 C 1926.165 347.973, 1905.040 349.678, 1889.300 346.427 C 1867.261 341.875, 1849.626 330.805, 1826.735 307.155 C 1820.265 300.470, 1814.699 295, 1814.367 295 C 1813.347 295, 1765 342.188, 1765 343.183 C 1765 345.482, 1778.359 361.556, 1789.399 372.540 C 1823.045 406.015, 1864.274 421.544, 1914.500 419.658 C 1952.711 418.224, 1982.724 406.305, 2005.514 383.514 C 2024.569 364.459, 2036.907 337.394, 2038.797 310.500 C 2039.240 304.203, 2039.690 320.867, 2040.013 355.500 C 2040.295 385.750, 2040.522 319.825, 2040.518 209 C 2040.510 16.075, 2040.489 13.628, 2040.005 151.500 C 2039.727 230.700, 2039.188 290.550, 2038.808 284.500 C 2037.590 265.157, 2031.220 246.049, 2020.945 230.918 C 2014.499 221.427, 2001.765 208.617, 1990.298 200.088 C 1975.663 189.203, 1960.012 180.678, 1930.450 167.488 C 1892.332 150.481, 1876.959 141.864, 1867.041 131.946 C 1849.769 114.673, 1854.108 85.723, 1875.687 74.257 C 1892.498 65.325, 1918.742 65.608, 1938.678 74.936 C 1951.501 80.937, 1965.978 92.893, 1975.500 105.346 C 1978.250 108.942, 1980.787 111.911, 1981.137 111.942 C 1981.897 112.011, 2029.354 68.087, 2029.826 66.880 C 2030.547 65.033, 2018.905 49.903, 2009.500 40.465 C 1986.033 16.914, 1958.549 4.461, 1922.500 1.044 C 1910.482 -0.095, 1906.136 -0.096, 1892.313 1.039 M 1 210.500 L 1 412 37.497 412 L 73.993 412 74.247 270.250 L 74.500 128.500 146 268.222 C 185.325 345.069, 217.860 407.837, 218.300 407.706 C 218.740 407.574, 251.250 344.699, 290.544 267.983 L 361.989 128.500 361.994 270.250 L 362 412 399 412 L 436 412 436 210.491 L 436 8.981 386.884 9.241 L 337.767 9.500 278.249 130.225 C 245.513 196.624, 218.414 250.756, 218.029 250.518 C 217.644 250.280, 190.593 195.841, 157.915 129.543 L 98.500 9.001 49.750 9 L 1 9 1 210.500 M 749.885 13.750 C 739.211 38.551, 582 410.890, 582 411.367 C 582 411.715, 600.648 412, 623.441 412 C 655.503 412, 665.062 411.717, 665.677 410.750 C 666.115 410.063, 675.796 387.450, 687.192 360.500 L 707.911 311.500 779.109 311.500 L 850.307 311.500 871.425 361.500 L 892.543 411.500 934.347 411.761 C 971.458 411.993, 976.114 411.850, 975.825 410.490 C 975.646 409.648, 937.475 318.977, 891 209 L 806.500 9.041 779.214 9.020 L 751.929 9 749.885 13.750 M 1031 46 L 1031 83 1099.500 83 L 1168 83 1168 247.500 L 1168 412 1206.500 412 L 1245 412 1245 247.500 L 1245 83 1313.500 83 L 1382 83 1382 46 L 1382 9 1206.500 9 L 1031 9 1031 46 M 1533 210.500 L 1533 412 1571.500 412 L 1610 412 1610 210.500 L 1610 9 1571.500 9 L 1533 9 1533 210.500 M 778.773 124.579 C 777.964 125.917, 733 237.760, 733 238.433 C 733 238.745, 753.752 239, 779.117 239 C 822.550 239, 825.206 238.898, 824.761 237.250 C 824.502 236.287, 814.495 211.200, 802.525 181.500 C 790.554 151.800, 780.438 126.636, 780.045 125.579 C 779.651 124.522, 779.079 124.072, 778.773 124.579 M 1282.763 552.967 C 1263.280 556.518, 1250.855 568.071, 1247.941 585.347 C 1245.235 601.394, 1251.587 615.212, 1266.248 625.169 C 1269.564 627.420, 1278.627 632.301, 1286.388 636.015 C 1303.868 644.380, 1308.545 647.716, 1311.199 653.716 C 1316.704 666.163, 1307.049 676.765, 1291.075 675.815 C 1281.871 675.267, 1274.461 671.598, 1265.935 663.367 L 1259.022 656.693 1249.966 665.604 L 1240.911 674.515 1245.479 679.867 C 1260.962 698.006, 1282.336 705.391, 1305.280 700.529 C 1328.095 695.694, 1342.032 675.617, 1339.051 651.879 C 1336.899 634.741, 1327.049 623.870, 1304.154 613.365 C 1282.326 603.350, 1277.058 599.736, 1274.941 593.322 C 1273.040 587.560, 1276.211 581.467, 1282.918 578 C 1284.248 577.312, 1288.106 576.750, 1291.491 576.750 C 1299.719 576.750, 1306.037 579.646, 1313.175 586.689 L 1318.849 592.288 1327.425 584.482 C 1332.141 580.188, 1336 576.315, 1336 575.875 C 1336 575.435, 1334.088 572.736, 1331.750 569.877 C 1326.312 563.226, 1318.234 557.690, 1310.034 554.996 C 1302.781 552.613, 1289.945 551.658, 1282.763 552.967 M 673.750 555.565 C 673.337 555.987, 673 588.433, 673 627.667 L 673 699 687 699 L 701 699 701 672.157 L 701 645.314 717.530 644.662 C 735.329 643.960, 745.475 642.186, 753.692 638.340 C 761.523 634.674, 768.420 627.924, 772.219 620.206 C 775.437 613.671, 775.500 613.281, 775.500 600.021 C 775.500 586.954, 775.396 586.282, 772.392 580 C 766.944 568.609, 758.027 561.812, 743.325 557.845 C 736.405 555.978, 731.971 555.679, 705 555.265 C 688.225 555.007, 674.163 555.142, 673.750 555.565 M 863.652 558.250 C 862.896 560.038, 849.389 591.951, 833.638 629.170 C 817.887 666.388, 805 697.326, 805 697.920 C 805 698.645, 809.862 699, 819.778 699 L 834.556 699 842.028 681.009 L 849.500 663.017 874.632 663.009 L 899.764 663 905.556 676.750 C 908.742 684.313, 912.154 692.413, 913.139 694.750 L 914.929 699 930.071 699 C 943.395 699, 945.142 698.812, 944.614 697.436 C 942.685 692.411, 886.527 560.018, 885.362 557.750 C 883.971 555.043, 883.800 555, 874.488 555 L 865.027 555 863.652 558.250 M 996.750 555.570 C 996.337 555.990, 996 588.433, 996 627.667 L 996 699 1009.984 699 L 1023.968 699 1024.234 671.250 L 1024.500 643.500 1036.824 643.500 L 1049.148 643.500 1060.926 671 L 1072.705 698.500 1087.352 698.777 C 1095.409 698.929, 1102 698.669, 1102 698.199 C 1102 697.729, 1095.925 683.289, 1088.500 666.110 C 1081.075 648.932, 1075 634.726, 1075 634.542 C 1075 634.359, 1077.261 632.757, 1080.025 630.984 C 1089.983 624.594, 1095.121 615.850, 1096.470 602.995 C 1098.334 585.244, 1090.883 569.480, 1077.175 562.174 C 1066.525 556.497, 1061.627 555.811, 1028 555.285 C 1011.225 555.022, 997.163 555.151, 996.750 555.570 M 1160 627 L 1160 699 1174 699 L 1188 699 1188 627 L 1188 555 1174 555 L 1160 555 1160 627 M 1024.227 598.158 L 1024.500 616.500 1038.699 616.381 C 1051.507 616.273, 1053.368 616.028, 1057.698 613.881 C 1064.415 610.549, 1067 606.299, 1067 598.587 C 1067 590.408, 1064.705 586.243, 1058.413 583 C 1054.003 580.727, 1052.216 580.469, 1038.758 580.158 L 1023.954 579.816 1024.227 598.158 M 701 600.014 L 701 619.276 715.250 618.697 C 731.565 618.033, 736.364 616.973, 741.242 612.952 C 747.931 607.438, 748.763 595.216, 742.902 588.542 C 738.337 583.341, 732.730 581.837, 715.750 581.257 L 701 580.752 701 600.014 M 866.709 616.709 C 862.426 627.459, 859.101 636.434, 859.320 636.654 C 859.540 636.873, 866.692 636.928, 875.215 636.776 L 890.711 636.500 882.856 617.084 C 878.536 606.405, 874.888 597.555, 874.749 597.416 C 874.610 597.277, 870.992 605.959, 866.709 616.709" stroke="none" fill="black" fill-rule="evenodd"/>
</svg>