<svg xmlns="http://www.w3.org/2000/svg" width="1200" height="435" viewBox="0 0 1200 435" version="1.1">
	<path d="M 189 0.893 C 186.512 1.583, 186.498 1.654, 186 16.043 L 185.500 30.500 180 30.500 L 174.500 30.500 174.203 24.287 C 173.908 18.098, 173.893 18.070, 170.531 17.440 C 168.675 17.092, 165.792 17.106, 164.124 17.473 C 161.190 18.117, 161.082 18.339, 160.796 24.319 L 160.500 30.500 155.500 30.500 L 150.500 30.500 150 24.519 C 149.554 19.183, 149.219 18.439, 146.902 17.629 C 145.472 17.129, 142.660 17.029, 140.652 17.406 L 137 18.091 137 37.037 L 137 55.983 143.250 53.616 C 146.688 52.314, 152.413 50.058, 155.974 48.603 C 159.535 47.148, 163.022 46.178, 163.724 46.448 C 165.365 47.077, 165.385 52.459, 163.750 53.718 C 163.063 54.248, 157.775 56.563, 152 58.862 C 146.225 61.162, 140.951 63.390, 140.279 63.813 C 139.528 64.286, 143.952 66.701, 151.779 70.092 L 164.500 75.603 164.807 79.801 C 165.209 85.285, 164.189 85.268, 151.179 79.578 C 145.618 77.146, 140.153 74.866, 139.034 74.511 C 137.038 73.877, 137 74.216, 137 92.433 L 137 111 142.981 111 C 149.551 111, 149.619 110.925, 150.230 103 C 150.500 99.503, 150.504 99.500, 155.500 99.500 L 160.500 99.500 161 105 L 161.500 110.500 167.699 110.796 L 173.897 111.093 174.199 105.296 L 174.500 99.500 180 99.500 L 185.500 99.500 185.764 130.250 C 185.979 155.206, 185.780 161, 184.707 161 C 183.980 161, 157.086 139.447, 124.943 113.105 C 67.655 66.157, 66.449 65.237, 63.898 66.554 C 59.168 68.998, 52 78.782, 52 82.795 C 52 83.268, 56.725 87.217, 62.500 91.571 C 68.275 95.925, 73 100.046, 73 100.728 C 73 101.410, 71.702 103.421, 70.115 105.197 C 66.962 108.726, 66.346 108.662, 59.448 104.081 L 56.397 102.055 52.745 106.777 L 49.093 111.500 53.546 116.034 C 55.996 118.528, 58 121.027, 58 121.588 C 58 122.753, 51.798 129, 50.642 129 C 50.223 129, 47.770 127.388, 45.190 125.419 L 40.500 121.837 37.680 125.169 C 32.152 131.700, 31.647 130.774, 47.660 143.509 L 62.312 155.162 63.479 152.331 C 64.121 150.774, 66.151 144.662, 67.991 138.750 C 69.830 132.837, 71.835 128, 72.445 128 C 74.680 128, 78 131.173, 78 133.309 C 78 134.516, 76.650 140.227, 75 146 C 73.350 151.773, 72 156.864, 72 157.315 C 72 157.766, 77.118 155.404, 83.374 152.067 C 89.630 148.730, 95.401 146, 96.200 146 C 98.325 146, 102.573 150.829, 101.437 151.952 C 100.922 152.462, 95.550 155.750, 89.500 159.259 C 83.450 162.768, 78.512 166.058, 78.528 166.570 C 78.543 167.081, 84.582 172.563, 91.948 178.751 C 106.871 191.287, 106.273 191.149, 111.186 183.200 L 113.307 179.768 109.653 176.321 C 107.644 174.425, 106 172.693, 106 172.472 C 106 171.678, 112.223 165, 112.963 165 C 113.378 165, 115.682 166.554, 118.082 168.453 C 122.165 171.684, 122.562 171.801, 124.255 170.269 C 125.250 169.368, 127.034 167.063, 128.220 165.145 L 130.374 161.658 126.187 158.052 C 123.884 156.068, 122 153.652, 122 152.682 C 122 150.135, 126.077 145, 128.100 145 C 129.837 145, 175.360 182.531, 177.824 185.995 C 179.039 187.702, 177.178 189.434, 155.328 206.928 C 142.227 217.418, 130.749 226, 129.821 226 C 128.893 226, 126.475 223.975, 124.446 221.500 C 120.507 216.693, 118.583 216.130, 114.069 218.464 C 111.043 220.029, 106 225.479, 106 227.184 C 106 227.750, 107.800 230.474, 110 233.237 C 114.594 239.007, 114.729 239.539, 111.976 241.013 C 110.269 241.926, 108.666 241.253, 101.726 236.708 C 87.790 227.581, 76.879 224, 63 224 C 45.788 224, 31.989 229.826, 19.403 242.406 C 13.022 248.784, 10.426 252.302, 7.158 259 C 1.065 271.486, -0.327 278.136, 0.252 291.974 C 0.727 303.304, 1.683 307.301, 7.150 320.824 C 8.475 324.100, 8.431 324.208, 4.167 328.186 C 0.855 331.274, -0.031 332.739, 0.391 334.422 C 1.286 337.987, 6.718 344.803, 10.029 346.515 C 13.006 348.055, 13.220 348.011, 17.246 345.051 C 19.527 343.373, 21.880 342, 22.474 342 C 23.068 342, 26.012 343.847, 29.016 346.105 C 49.232 361.294, 74.746 363.843, 97 352.896 C 103.726 349.587, 107.171 347.023, 113.509 340.607 C 126.675 327.280, 132.430 313.182, 132.330 294.500 C 132.277 284.589, 130.631 277.861, 124.942 264.300 C 123.745 261.448, 123.801 260.877, 125.455 259.050 C 126.475 257.923, 127.803 257.002, 128.405 257.004 C 129.007 257.006, 131.391 259.456, 133.702 262.448 C 137.762 267.706, 138.014 267.857, 141.202 266.963 C 144.759 265.964, 152 259.015, 152 256.600 C 152 255.787, 150.200 253.042, 148 250.500 C 145.800 247.958, 144 245.487, 144 245.009 C 144 243.388, 184.260 210.860, 185.156 211.756 C 185.639 212.239, 185.914 224.304, 185.767 238.567 L 185.500 264.500 180 264.759 C 171.990 265.137, 170.474 265.664, 169.171 268.523 C 167.548 272.085, 167.707 278.532, 169.503 282.006 C 170.926 284.758, 171.390 284.928, 178.253 285.206 L 185.500 285.500 185.500 288.402 C 185.500 291.175, 185.112 291.425, 176.773 294.024 C 164.755 297.771, 155.855 303.334, 146.945 312.671 C 134.146 326.083, 128.258 341.580, 129.323 359.049 C 131.046 387.313, 150.221 410.889, 178.500 419.514 L 185.500 421.648 186 427.051 C 186.602 433.550, 188.574 434.971, 197 434.971 C 205.438 434.971, 207.399 433.553, 208 427.020 L 208.500 421.586 217.542 418.543 C 229.610 414.482, 236.877 410.010, 246.053 401 C 282.382 365.326, 266.319 309.070, 215.105 292.616 C 209.295 290.750, 208.500 290.194, 208.500 287.997 C 208.500 285.610, 208.798 285.487, 215.248 285.204 C 221.556 284.928, 222.094 284.719, 223.498 282.004 C 226.416 276.361, 224.733 267.416, 220.579 266.487 C 219.435 266.232, 216.250 265.905, 213.500 265.761 L 208.500 265.500 208.233 239.567 C 208.086 225.295, 208.367 213.233, 208.858 212.742 C 209.777 211.823, 249 244.291, 249 245.971 C 249 246.470, 247.200 248.958, 245 251.500 C 242.800 254.042, 241 256.342, 241 256.610 C 241 258.384, 244.519 263.283, 247.249 265.311 C 253.182 269.717, 254.632 269.490, 259.315 263.427 C 263.692 257.758, 265.228 257.102, 268.435 259.528 C 270.333 260.963, 270.309 261.174, 267.243 270.246 C 260.462 290.303, 260.698 305.219, 268.054 321.687 C 275.615 338.615, 288.671 350.468, 306.510 356.599 C 313.295 358.932, 316.160 359.351, 325.500 359.376 C 341.424 359.420, 353.555 355.443, 365.984 346.105 C 368.988 343.847, 371.959 342, 372.586 342 C 373.212 342, 375.424 343.350, 377.500 345 C 379.576 346.650, 381.887 348, 382.635 348 C 384.524 348, 391.827 341.235, 393.565 337.875 C 395.730 333.688, 395.373 332.420, 390.834 328.186 L 386.667 324.300 389.367 317.555 C 397.579 297.043, 396.865 276.107, 387.325 257.700 C 382.603 248.587, 370.069 235.771, 361.493 231.284 C 352.534 226.597, 342.011 224, 331.980 224 C 318.160 224, 307.120 227.612, 293.500 236.589 C 286.482 241.215, 285.261 241.707, 283.555 240.596 C 280.499 238.606, 280.669 237.677, 285.107 232.103 C 288.988 227.229, 289.179 226.703, 287.921 224.353 C 285.721 220.243, 280.218 216, 277.086 216 C 274.927 216, 273.352 217.085, 270.554 220.500 C 268.525 222.975, 266.109 224.999, 265.183 224.998 C 264.257 224.997, 254.725 218, 244 209.450 C 213.749 185.331, 215.680 187.094, 217.193 184.969 C 219.649 181.520, 265.171 144, 266.900 144 C 268.923 144, 273 149.135, 273 151.682 C 273 152.652, 271.116 155.068, 268.813 157.052 L 264.626 160.658 266.750 164.096 C 267.919 165.987, 269.925 168.520, 271.208 169.726 L 273.541 171.917 277.911 168.458 C 280.315 166.556, 282.584 165, 282.954 165 C 284.362 165, 289 170.691, 289 172.419 C 289 173.414, 287.122 175.895, 284.827 177.932 L 280.653 181.635 283.839 186.267 C 285.592 188.814, 287.395 191.126, 287.847 191.405 C 288.830 192.013, 316.418 169.936, 316.467 168.502 C 316.485 167.954, 311.115 164.513, 304.534 160.855 C 297.953 157.198, 292.420 153.759, 292.237 153.212 C 292.055 152.666, 293.113 151.270, 294.588 150.109 C 297.371 147.921, 300.905 147.368, 302.550 148.864 C 304.493 150.632, 323 159.882, 323 159.086 C 323 158.630, 321.426 153.137, 319.503 146.879 C 317.580 140.621, 316.005 134.498, 316.003 133.273 C 316 130.935, 320.225 127.403, 321.834 128.397 C 322.341 128.711, 324.450 135.059, 326.520 142.506 L 330.284 156.044 332.605 154.523 C 333.881 153.687, 340.557 148.453, 347.439 142.892 C 361.092 131.861, 360.751 132.585, 355.320 126.169 L 352.500 122.837 347.810 126.419 C 345.230 128.388, 342.666 130, 342.111 130 C 340.995 130, 336 123.821, 336 122.440 C 336 121.961, 337.999 119.528, 340.442 117.034 L 344.884 112.500 341.327 107.724 L 337.771 102.949 334.635 105.028 C 327.640 109.668, 327.044 109.733, 323.885 106.197 C 322.298 104.421, 321 102.340, 321 101.572 C 321 100.804, 325.725 96.475, 331.500 91.953 C 337.275 87.431, 342 83.205, 342 82.561 C 342 80.417, 336.389 72.548, 332.129 68.718 L 327.922 64.935 320.233 71.218 C 316.004 74.673, 289.614 96.288, 261.589 119.250 C 233.564 142.213, 210.042 161, 209.317 161 C 208.239 161, 208 146.590, 208 81.475 L 208 1.950 205.435 0.975 C 202.559 -0.118, 192.821 -0.167, 189 0.893 M 1090.500 63.498 C 1051.920 69.689, 1027.033 90.475, 1018.330 123.776 C 1016.224 131.835, 1015.785 135.812, 1015.765 147 C 1015.744 158.794, 1016.081 161.637, 1018.429 169.500 C 1025.498 193.177, 1041.384 210.725, 1067.500 223.707 C 1076.315 228.089, 1079.919 229.548, 1100.500 237.073 C 1120.826 244.505, 1133.038 251.101, 1141.089 259 C 1148.256 266.030, 1150.578 269.749, 1152.644 277.500 C 1155.720 289.045, 1153.245 309.662, 1147.397 321.202 C 1144.038 327.832, 1135.357 336.946, 1129.249 340.258 C 1121.550 344.432, 1112.792 346.239, 1100.417 346.206 C 1080.382 346.154, 1067.265 341.265, 1055.351 329.411 C 1043.865 317.984, 1037.504 302.407, 1034.942 279.437 C 1034.334 273.981, 1033.311 269.182, 1032.668 268.774 C 1032.026 268.365, 1028.028 268.024, 1023.785 268.015 C 1017.420 268.003, 1015.921 268.306, 1015.218 269.750 C 1014.394 271.439, 1016.468 339.274, 1017.475 343.603 C 1017.817 345.072, 1020.305 346.772, 1025.732 349.245 C 1044.419 357.762, 1073.416 363.224, 1100 363.235 C 1132.425 363.248, 1156.808 354.895, 1174.892 337.578 C 1192.212 320.993, 1200 301.427, 1200 274.500 C 1200 254.337, 1196.302 240.752, 1186.977 226.661 C 1174.528 207.848, 1158.401 197.448, 1118.500 182.504 C 1108.600 178.797, 1097.211 174.259, 1093.192 172.420 C 1077.617 165.294, 1065.920 155.492, 1060.334 144.883 C 1057.695 139.870, 1057.501 138.709, 1057.514 128 C 1057.526 118.602, 1057.953 115.264, 1059.850 109.735 C 1066.802 89.485, 1084.679 79.098, 1110.500 80.305 C 1127.234 81.087, 1137.156 85.185, 1146.668 95.243 C 1155.019 104.073, 1160.544 117.058, 1162.946 133.500 C 1163.588 137.900, 1164.334 142.963, 1164.602 144.750 L 1165.091 148 1174.672 148 L 1184.253 148 1183.560 115.750 C 1183.178 98.012, 1182.638 82.703, 1182.359 81.729 C 1181.237 77.810, 1157.296 68.893, 1137.445 65.002 C 1123.213 62.212, 1102.625 61.553, 1090.500 63.498 M 470.607 67.582 C 469.467 70.554, 469.947 81.848, 471.250 82.691 C 471.938 83.136, 478.800 83.725, 486.500 84 L 500.500 84.500 501.063 182 C 501.668 286.767, 501.765 288.784, 507.088 306.457 C 514.586 331.352, 531.710 348.996, 556 356.855 C 583.408 365.723, 625.982 365.779, 651.552 356.982 C 673.489 349.435, 688.758 332.760, 696.405 308 C 701.897 290.216, 702.011 288.096, 703.128 183.500 C 703.698 130.150, 704.338 85.938, 704.550 85.250 C 704.832 84.340, 708.230 84, 717.034 84 C 723.688 84, 730.002 83.534, 731.066 82.965 C 732.668 82.107, 733 80.834, 733 75.547 C 733 65.005, 737.493 66, 689.893 66 L 648 66 648 74.500 C 648 79.175, 648.112 83.070, 648.250 83.155 C 648.388 83.240, 655.250 83.578, 663.500 83.905 L 678.500 84.500 678.785 175 C 678.964 231.670, 678.684 269.799, 678.036 277 C 674.729 313.776, 662.194 332.440, 636 339.594 C 625.872 342.360, 603.722 342.199, 594.486 339.293 C 576.810 333.731, 566.446 321.038, 560.527 297.703 C 556.357 281.265, 555.896 267.962, 556.209 173 L 556.500 84.500 572.500 83.910 C 581.300 83.585, 588.612 83.248, 588.750 83.160 C 588.888 83.072, 589 79.175, 589 74.500 L 589 66 530.107 66 C 477.327 66, 471.151 66.164, 470.607 67.582 M 751 74.453 C 751 79.154, 751.112 83.072, 751.250 83.160 C 751.388 83.248, 758.700 83.585, 767.500 83.910 L 783.500 84.500 783.500 213 L 783.500 341.500 766.500 342 L 749.500 342.500 749.205 350.413 C 748.994 356.068, 749.280 358.561, 750.205 359.148 C 752.213 360.422, 879.145 360.191, 891.211 358.892 C 933.692 354.318, 962.759 333.925, 973.017 301.500 C 976.158 291.572, 976.917 271.221, 974.544 260.555 C 968.235 232.197, 945.399 211.283, 913.250 204.420 C 905.168 202.695, 903.252 201.502, 906.750 200.372 C 922.532 195.277, 936.005 187.442, 946.067 177.507 C 958.529 165.204, 963.922 153.496, 964.725 137 C 965.303 125.140, 963.422 115.678, 958.400 105.191 C 955.526 99.190, 952.825 95.606, 946.109 88.883 C 938.883 81.650, 935.974 79.527, 928 75.667 C 922.775 73.138, 914.675 70.063, 910 68.835 C 901.629 66.635, 900.360 66.596, 826.250 66.253 L 751 65.906 751 74.453 M 833.485 85.181 C 833.207 85.907, 833.097 110.800, 833.240 140.500 L 833.500 194.500 852.495 194.773 C 869.070 195.011, 872.320 194.794, 878.009 193.066 C 899.026 186.682, 911 166.878, 911 138.500 C 911 113.555, 901.462 95.261, 884.253 87.196 C 878.628 84.560, 878.005 84.493, 856.245 84.181 C 838.517 83.927, 833.887 84.131, 833.485 85.181 M 835.505 214.131 C 835.217 214.884, 835.098 244.075, 835.241 279 L 835.500 342.500 854.500 342.402 C 875.451 342.293, 881.363 341.279, 892.835 335.827 C 900.842 332.022, 910.457 322.607, 914.805 314.314 C 920.330 303.778, 922.220 294.571, 922.261 278 C 922.289 266.461, 921.856 261.688, 920.138 254.626 C 915.153 234.137, 904.286 221.415, 887 215.827 C 881.448 214.033, 877.258 213.656, 858.264 213.244 C 840.036 212.849, 835.934 213.009, 835.505 214.131 M 48.721 245.961 C 38.697 249.878, 29.460 259.188, 24.525 270.348 C 21.465 277.268, 19.582 288.615, 20.456 294.870 C 21.508 302.392, 23.960 310, 25.334 310 C 26.036 310, 28.136 308.875, 30 307.500 C 31.864 306.125, 33.960 305, 34.659 305 C 38.158 305, 47 316.047, 47 320.418 C 47 321.241, 45.425 323.171, 43.500 324.707 C 41.575 326.243, 40 328.225, 40 329.111 C 40 332.989, 58.764 339.953, 69.303 339.985 C 86.171 340.037, 103.846 329.344, 110.312 315.176 C 113.381 308.452, 113.333 297.840, 110.212 292.821 C 107.155 287.905, 100.294 284.535, 95.264 285.478 C 81.522 288.056, 74.459 300.054, 79.975 311.449 C 82.244 316.136, 88.579 320.954, 92.588 321.042 C 94.113 321.075, 93.732 321.762, 90.703 324.438 C 88.615 326.283, 85.142 329.016, 82.985 330.510 L 79.064 333.228 74.474 330.538 C 68.627 327.111, 61.600 317.672, 60.033 311.136 C 59.348 308.282, 59.139 304.257, 59.537 301.599 L 60.227 297 56.864 296.990 C 46.884 296.961, 33.469 284.609, 30.648 272.851 C 30.077 270.469, 30.749 269.638, 37.325 264.601 C 41.347 261.520, 44.924 259, 45.274 259 C 45.623 259, 46.210 260.688, 46.577 262.750 C 48.393 272.952, 55.197 278.516, 64.991 277.807 C 72.344 277.275, 77.100 273.923, 79.531 267.559 C 82.855 258.855, 78.700 248.862, 70.298 245.351 C 65.644 243.407, 54.448 243.723, 48.721 245.961 M 328.589 246.118 C 322.581 247.527, 318.347 250.651, 316.071 255.353 C 312.283 263.178, 314.183 269.792, 321.930 275.750 C 329.691 281.719, 339.907 279.713, 345.726 271.078 C 346.977 269.223, 348.007 266.533, 348.015 265.102 C 348.048 259.571, 349.323 259.630, 356.838 265.510 C 360.777 268.592, 364 271.651, 363.999 272.307 C 363.999 272.963, 362.717 276.200, 361.150 279.500 C 356.484 289.329, 345.367 297.923, 337.250 297.978 L 334 298 334 303.874 C 334 307.105, 333.315 311.690, 332.478 314.063 C 330.286 320.274, 323.715 328.497, 318.500 331.553 L 314.003 334.188 309.251 330.195 C 306.638 327.998, 303.409 325.031, 302.076 323.600 C 299.922 321.291, 299.857 321, 301.488 321 C 305.362 321, 311.761 316.125, 314.025 311.449 C 319.694 299.737, 311.739 287.097, 298.651 287.022 C 284.782 286.943, 278.013 302.361, 285.354 317.311 C 293.194 333.278, 311.627 343.300, 330.063 341.619 C 341.032 340.619, 354.957 334.686, 354.988 331 C 354.994 330.175, 353.425 328.243, 351.500 326.707 C 349.575 325.171, 348 323.237, 348 322.408 C 348 318.034, 356.787 307, 360.270 307 C 361.295 307, 363.674 308.175, 365.557 309.611 C 367.439 311.047, 369.640 311.968, 370.448 311.658 C 372.848 310.737, 375.346 300.297, 375.270 291.500 C 375.184 281.484, 372.437 272.942, 366.363 263.799 C 359.583 253.594, 351.633 248.143, 340.535 246.091 C 333.885 244.862, 333.946 244.862, 328.589 246.118 M 162.416 326.899 C 153.514 330.942, 148.235 340.427, 147.270 354.110 C 146.272 368.268, 150.652 379.805, 160.924 390.073 C 167.668 396.814, 176.284 401.907, 181.592 402.290 C 184.420 402.494, 184.508 402.359, 184.799 397.331 C 185.076 392.556, 185.336 392.079, 188.199 391.081 C 192.175 389.695, 199.825 389.695, 203.801 391.081 C 206.664 392.079, 206.924 392.556, 207.201 397.331 L 207.500 402.500 210.806 402.239 C 216.136 401.817, 223.991 397.194, 230.593 390.593 C 240.349 380.836, 244.966 369.856, 244.988 356.355 C 245.020 337.039, 235.504 325.025, 220.154 325.006 C 211.926 324.995, 207 331.185, 207 341.533 C 207 348.866, 209.510 353.100, 215.606 356.051 C 221.284 358.800, 227.416 358.314, 232.905 354.681 L 236.774 352.121 237.387 355.186 C 238.341 359.957, 238.109 368.928, 236.976 371.045 C 236.376 372.167, 233.613 373.638, 230.295 374.603 C 220.112 377.563, 207.756 374.800, 201.490 368.161 C 199.849 366.422, 198.027 365, 197.440 365 C 196.854 365, 195.052 366.409, 193.437 368.130 C 187.584 374.368, 176.099 377.200, 165.544 375.009 C 157.679 373.376, 156 371.461, 156 364.125 C 156 360.894, 156.278 356.861, 156.617 355.164 L 157.235 352.077 160.659 354.689 C 167.885 360.201, 180.309 358.091, 184.962 350.561 C 187.783 345.998, 187.794 336.021, 184.984 331.474 C 181.097 325.185, 170.790 323.096, 162.416 326.899" stroke="none" fill="black" fill-rule="evenodd"/>
</svg>