<svg xmlns="http://www.w3.org/2000/svg" width="2560" height="625" viewBox="0 0 2560 625" version="1.1">
	<path d="M 19.750 17.689 C 18.088 18.124, 18 33.002, 18 312.457 L 18 606.767 20.250 607.370 C 23.192 608.158, 602.808 608.158, 605.750 607.370 L 608 606.767 608 312.500 L 608 18.233 605.750 17.630 C 603.164 16.937, 22.404 16.996, 19.750 17.689 M 43.463 43.248 C 43.202 43.937, 43.103 165.550, 43.244 313.500 L 43.500 582.500 313 582.500 L 582.500 582.500 582.500 312.500 L 582.500 42.500 313.219 42.248 C 98.319 42.047, 43.843 42.249, 43.463 43.248 M 1335.745 77.690 C 1334.085 78.124, 1334.004 83.771, 1334.245 183.324 L 1334.500 288.500 1347.750 288.779 L 1361 289.058 1361.009 256.279 C 1361.019 217.688, 1362.024 203.760, 1365.560 193.227 C 1371.841 174.516, 1385.305 164, 1402.981 164 C 1415.094 164, 1423.195 168.431, 1428.329 177.864 C 1433.494 187.353, 1433.964 192.483, 1433.983 239.625 C 1433.992 263.344, 1434.281 284.156, 1434.625 285.875 L 1435.250 289 1448.106 289 C 1460.805 289, 1460.969 288.971, 1461.558 286.625 C 1461.886 285.319, 1461.977 262.706, 1461.761 236.375 C 1461.387 190.815, 1461.262 188.113, 1459.169 180.500 C 1456.197 169.684, 1452.792 163.028, 1446.979 156.668 C 1437.969 146.809, 1425.274 142.042, 1407.960 142.015 C 1391.948 141.990, 1379.356 146.704, 1368.970 156.610 C 1365.862 159.575, 1362.797 162, 1362.160 162 C 1361.299 162, 1361 151.215, 1361 120.117 L 1361 78.233 1358.750 77.630 C 1356.197 76.946, 1338.418 76.992, 1335.745 77.690 M 319.780 93.250 C 318.505 94.245, 203.744 280.665, 188.845 305.944 L 185.046 312.389 187.330 316.444 C 194.758 329.633, 318.462 530.721, 319.781 531.750 C 321.040 532.733, 344.498 532.997, 429.441 532.986 C 488.874 532.979, 538.476 532.711, 539.668 532.391 C 542.341 531.674, 550.783 546.026, 472.671 418.500 C 437.972 361.850, 409.428 314.375, 409.240 313 C 408.983 311.119, 425.352 283.651, 475.381 202.017 C 520.617 128.204, 541.486 93.294, 540.682 92.782 C 540.032 92.369, 490.424 92.024, 430.441 92.015 C 344.696 92.003, 321.040 92.267, 319.780 93.250 M 784.667 92.667 C 784.061 93.272, 783.663 116.710, 784.250 117.216 C 784.388 117.334, 805.875 117.672, 832 117.966 C 874.537 118.444, 879.488 118.666, 879.388 120.086 C 879.327 120.958, 857.080 153.544, 829.951 192.500 L 780.624 263.328 780.190 271.605 C 779.951 276.158, 780.063 281.934, 780.439 284.441 L 781.123 289 849.061 289 L 917 289 917 276.500 L 917 264 867.059 264 C 832.829 264, 816.911 263.665, 816.460 262.936 C 815.626 261.586, 814.648 263.042, 868.643 185.311 C 893.643 149.321, 914.525 118.749, 915.049 117.372 C 916.095 114.620, 916.328 97.827, 915.370 94.250 L 914.767 92 850.050 92 C 814.456 92, 785.033 92.300, 784.667 92.667 M 972.667 95.667 C 972.300 96.033, 972 102.285, 972 109.560 C 972 120.698, 972.250 122.882, 973.582 123.393 C 975.640 124.183, 995.360 124.183, 997.418 123.393 C 998.756 122.880, 999 120.639, 999 108.893 L 999 95 986.167 95 C 979.108 95, 973.033 95.300, 972.667 95.667 M 1018.607 96.582 C 1017.443 99.615, 1017.939 121.539, 1019.200 122.800 C 1019.998 123.598, 1024.361 124, 1032.225 124 C 1043.998 124, 1044.054 123.989, 1045.025 121.435 C 1046.111 118.577, 1046.346 102.978, 1045.375 98.125 L 1044.750 95 1031.982 95 C 1021.262 95, 1019.117 95.254, 1018.607 96.582 M 1163.286 143.451 C 1156.777 145.485, 1151.051 149.288, 1144.578 155.877 C 1141.321 159.193, 1138.283 161.675, 1137.828 161.394 C 1137.373 161.112, 1136.994 158.321, 1136.986 155.191 C 1136.961 144.458, 1137.551 144.899, 1123.626 145.220 L 1111.500 145.500 1111.500 217 L 1111.500 288.500 1124.647 288.778 L 1137.795 289.057 1138.266 248.778 C 1138.699 211.724, 1138.909 207.828, 1140.888 200.102 C 1146.265 179.121, 1158.663 166.476, 1174.556 165.766 C 1177.825 165.620, 1183.088 165.870, 1186.250 166.322 L 1192 167.144 1192 155.619 L 1192 144.094 1188.250 143.053 C 1183.088 141.619, 1168.398 141.853, 1163.286 143.451 M 1257.179 143.945 C 1244.511 147.057, 1233.660 153.190, 1224.498 162.416 C 1212.371 174.630, 1206.005 188.425, 1203.774 207.326 C 1199.138 246.609, 1223.684 282.910, 1260.087 290.607 C 1278.345 294.468, 1310.070 290.409, 1309.973 284.224 C 1309.914 280.465, 1308.112 263.779, 1307.723 263.390 C 1307.495 263.162, 1305.104 263.951, 1302.410 265.143 C 1294.487 268.648, 1288.053 269.975, 1278.932 269.988 C 1264.539 270.008, 1254.909 265.955, 1245.533 255.932 C 1229.183 238.452, 1227.567 204.254, 1242.081 182.881 C 1253.330 166.316, 1272.443 160.210, 1294.590 166.106 C 1308.106 169.704, 1306.656 170.130, 1307.405 162.342 C 1307.766 158.579, 1308.314 153.806, 1308.621 151.737 C 1309.155 148.146, 1309.008 147.901, 1305.437 146.409 C 1294.564 141.866, 1270.621 140.644, 1257.179 143.945 M 1540.216 144.019 C 1517.488 149.973, 1500.901 166.965, 1493.809 191.557 C 1490.556 202.840, 1490.552 227.279, 1493.802 240.333 C 1499.126 261.711, 1511.043 277.051, 1528.558 285.072 C 1549.487 294.656, 1580.889 294.736, 1604.750 285.268 L 1611 282.787 1611 269.894 C 1611 262.802, 1610.768 257, 1610.485 257 C 1610.202 257, 1607.614 258.325, 1604.735 259.944 C 1601.856 261.563, 1595.225 264.364, 1590 266.168 C 1581.182 269.212, 1579.563 269.449, 1567.451 269.474 L 1554.403 269.500 1546.636 265.663 C 1537.347 261.074, 1529.803 253.917, 1525.354 245.472 C 1521.981 239.069, 1519.573 230.067, 1520.147 226 L 1520.500 223.500 1571.250 223.241 L 1622 222.982 1621.994 216.741 C 1621.987 209.190, 1619.576 192.545, 1617.396 185 C 1614.358 174.485, 1608.886 164.877, 1602.005 157.978 C 1594.344 150.296, 1588.003 146.686, 1577.415 143.978 C 1567.084 141.336, 1550.385 141.354, 1540.216 144.019 M 1702.329 143.934 C 1695.554 146.373, 1689.321 150.737, 1683.727 156.959 C 1681.234 159.731, 1678.701 162, 1678.097 162 C 1677.403 162, 1676.994 159.336, 1676.985 154.750 C 1676.976 150.762, 1676.603 146.923, 1676.155 146.217 C 1675.550 145.263, 1672.285 145.006, 1663.420 145.217 L 1651.500 145.500 1651.500 217 L 1651.500 288.500 1664.633 288.778 L 1677.766 289.056 1678.231 249.278 C 1678.749 205.016, 1679.264 200.675, 1685.584 187.355 C 1693.773 170.095, 1707.526 163.163, 1727.250 166.354 L 1732 167.123 1732 155.608 L 1732 144.094 1728.250 143.053 C 1722.115 141.349, 1708.195 141.822, 1702.329 143.934 M 945 192.369 C 945 246.981, 945.491 252.129, 951.996 265.788 C 960.433 283.500, 975.370 292.036, 998 292.077 C 1014.537 292.108, 1027.988 287.012, 1038.123 276.877 C 1041.356 273.644, 1044.432 271, 1044.961 271 C 1045.490 271, 1046.052 274.938, 1046.211 279.750 L 1046.500 288.500 1059.126 288.779 C 1071.529 289.053, 1071.762 289.018, 1072.362 286.779 C 1073.155 283.820, 1073.162 150.207, 1072.370 147.250 C 1071.784 145.065, 1071.398 145, 1058.902 145 C 1046.379 145, 1046.025 145.060, 1045.529 147.250 C 1045.249 148.488, 1044.879 167.725, 1044.706 190 C 1044.437 224.635, 1044.143 231.369, 1042.674 236.500 C 1037.880 253.248, 1028.545 264.258, 1015.875 268.106 C 1007.417 270.676, 995.638 270.425, 990 267.557 C 985.217 265.123, 980.210 260.247, 977.908 255.781 C 973.069 246.394, 972.713 242.377, 972.267 192.250 L 971.846 145 958.423 145 L 945 145 945 192.369 M 1546.324 165.439 C 1534.106 169.260, 1524.532 180.753, 1521.008 195.831 C 1520.238 199.126, 1520.118 201.518, 1520.694 202.094 C 1521.245 202.645, 1536.108 202.919, 1557.063 202.763 L 1592.500 202.500 1592.367 197 C 1592.153 188.147, 1588.627 180.445, 1581.588 173.456 C 1577.006 168.908, 1574.172 166.990, 1570.135 165.706 C 1563.805 163.693, 1552.321 163.565, 1546.324 165.439 M 1864.250 321.662 C 1863.261 322.061, 1863 344.191, 1863 427.612 L 1863 533.058 1876.250 532.779 L 1889.500 532.500 1889.755 427.562 C 1889.957 344.272, 1889.750 322.459, 1888.755 321.827 C 1887.404 320.969, 1866.319 320.828, 1864.250 321.662 M 1932.035 322.934 C 1930.917 325.024, 1930.524 526.621, 1931.630 530.750 C 1932.214 532.928, 1932.625 533, 1944.492 533 L 1956.750 533 1957.375 529.875 C 1957.719 528.156, 1958 524.556, 1958 521.875 C 1958 519.027, 1958.453 517, 1959.089 517 C 1959.687 517, 1962.487 519.021, 1965.311 521.491 C 1976.938 531.662, 1992.265 536.536, 2010 535.703 C 2022.189 535.130, 2030.191 532.635, 2039.364 526.546 C 2067.845 507.642, 2077.504 452.752, 2058.719 416.557 C 2048.229 396.345, 2029.758 385.632, 2005.500 385.689 C 1988.917 385.727, 1976.559 389.980, 1966.610 399.073 C 1963.645 401.783, 1960.720 404, 1960.110 404 C 1959.315 404, 1959 392.754, 1959 364.434 C 1959 339.073, 1958.628 324.174, 1957.965 322.934 C 1957.030 321.188, 1955.771 321, 1945 321 C 1934.229 321, 1932.970 321.188, 1932.035 322.934 M 2414.245 321.827 C 2413.250 322.459, 2413.043 344.272, 2413.245 427.562 L 2413.500 532.500 2426.750 532.779 L 2440 533.058 2440 497.956 C 2440 465.436, 2440.125 462.877, 2441.703 463.181 C 2442.639 463.362, 2454.361 476.107, 2467.752 491.505 C 2481.142 506.902, 2494.805 522.538, 2498.113 526.250 L 2504.127 533 2522.563 533 C 2533.323 533, 2541 532.611, 2541 532.066 C 2541 531.552, 2526.938 516.163, 2509.750 497.867 C 2469.187 454.689, 2469 454.482, 2469 452.695 C 2469 451.856, 2483.486 437.294, 2501.190 420.335 L 2533.381 389.500 2515.471 389.226 L 2497.561 388.952 2470.024 416.476 C 2454.879 431.614, 2441.927 444, 2441.243 444 C 2440.266 444, 2440 430.983, 2440 383.107 C 2440 328.503, 2439.837 322.151, 2438.418 321.607 C 2436.087 320.712, 2415.709 320.898, 2414.245 321.827 M 781.461 337.250 C 781.199 337.938, 781.100 382.150, 781.242 435.500 L 781.500 532.500 795.500 532.500 L 809.500 532.500 810 486.583 C 810.326 456.602, 810.855 440.548, 811.523 440.325 C 812.086 440.138, 831.570 460.913, 854.821 486.492 L 897.096 533 917.621 533 L 938.145 533 936.047 530.333 C 934.193 527.976, 887.272 478.963, 853.255 443.851 C 845.653 436.004, 841 430.420, 841 429.144 C 841 427.772, 855.814 412.134, 885.500 382.167 C 909.975 357.462, 930 336.967, 930 336.624 C 930 336.281, 921.718 336, 911.595 336 L 893.190 336 852.940 377.500 C 830.802 400.325, 812.084 419, 811.345 419 C 810.240 419, 810 411.594, 810 377.500 L 810 336 795.969 336 C 785.664 336, 781.811 336.332, 781.461 337.250 M 1299.125 351.583 C 1293.419 353.442, 1288.142 355.467, 1287.400 356.083 C 1286.395 356.917, 1285.979 361.204, 1285.775 372.852 L 1285.500 388.500 1269.716 388.776 L 1253.933 389.051 1254.216 399.776 L 1254.500 410.500 1270 411 L 1285.500 411.500 1286.070 458 C 1286.669 506.833, 1286.744 507.643, 1291.527 517 C 1297.753 529.179, 1311.774 536.028, 1330.386 535.983 C 1338.192 535.964, 1350.428 533.719, 1352.613 531.906 C 1354.143 530.636, 1354.620 513.524, 1353.187 511.269 C 1352.586 510.323, 1351.200 510.496, 1347.192 512.019 C 1340.576 514.533, 1331.852 514.570, 1326.429 512.107 C 1321.532 509.883, 1316.316 503.853, 1314.964 498.852 C 1314.369 496.650, 1314.081 478.617, 1314.239 453.352 L 1314.500 411.500 1332.639 411.228 C 1353.512 410.915, 1351.973 411.809, 1351.973 400 C 1351.973 388.191, 1353.512 389.085, 1332.639 388.772 L 1314.500 388.500 1313.946 368.500 C 1313.642 357.500, 1313.304 348.387, 1313.196 348.250 C 1312.644 347.547, 1308.513 348.525, 1299.125 351.583 M 1002.500 386.057 C 994.061 387.130, 978.375 392.062, 971.500 395.804 L 966.500 398.526 966.500 409.180 C 966.500 415.040, 966.800 420.135, 967.167 420.501 C 967.533 420.867, 970.908 419.310, 974.667 417.040 C 985.787 410.325, 993.139 408.500, 1009.073 408.500 C 1022.203 408.500, 1022.840 408.599, 1028.573 411.522 C 1037.997 416.329, 1042.614 424.516, 1043.220 437.500 L 1043.500 443.500 1021 444.099 C 995.810 444.770, 988.831 446.056, 975.455 452.489 C 956.033 461.831, 946.136 480.340, 949.873 500.334 C 954.160 523.271, 972.187 535.960, 1000.500 535.968 C 1016.444 535.972, 1028.568 531.651, 1039.532 522.057 C 1042.683 519.300, 1045.653 517.285, 1046.131 517.581 C 1046.609 517.876, 1047 521.480, 1047 525.590 L 1047 533.062 1059.147 532.781 L 1071.294 532.500 1071.098 484.500 C 1070.987 457.216, 1070.450 433.534, 1069.855 429.627 C 1068.608 421.442, 1065.891 413.196, 1062.580 407.546 C 1059.520 402.324, 1051.532 394.822, 1046.061 392.031 C 1036.139 386.969, 1016.505 384.276, 1002.500 386.057 M 1173.870 386.024 C 1161.207 387.990, 1150.494 393.301, 1142.294 401.680 C 1139.430 404.606, 1136.618 407, 1136.044 407 C 1135.396 407, 1135 403.584, 1135 398 L 1135 389 1121.993 389 L 1108.987 389 1109.243 460.750 L 1109.500 532.500 1122.500 532.500 L 1135.500 532.500 1136.089 490.500 C 1136.644 450.895, 1136.805 448.073, 1138.909 441.007 C 1143.371 426.030, 1150.789 416.237, 1161.769 410.830 C 1165.854 408.818, 1168.001 408.500, 1177.500 408.500 C 1187.650 408.500, 1188.855 408.709, 1193.094 411.200 C 1198.144 414.170, 1202.256 418.981, 1204.674 424.750 C 1208.314 433.436, 1208.929 442.317, 1208.965 486.668 C 1208.984 510.411, 1209.273 530.548, 1209.607 531.418 C 1210.117 532.747, 1212.267 533, 1223.046 533 L 1235.877 533 1236.552 528.499 C 1236.924 526.023, 1236.997 503.860, 1236.716 479.249 C 1236.147 429.554, 1235.713 425.521, 1229.505 412.270 C 1221.809 395.844, 1207.917 387.166, 1186.933 385.678 C 1182.845 385.388, 1176.966 385.544, 1173.870 386.024 M 1431.193 386.024 C 1400.873 390.193, 1378.755 409.799, 1370.863 439.500 C 1367.897 450.663, 1367.866 470.275, 1370.798 481.136 C 1377.564 506.196, 1394.194 524.155, 1418.500 532.648 C 1425.903 535.235, 1427.620 535.442, 1441.500 535.421 C 1455.052 535.401, 1457.275 535.141, 1464.521 532.728 C 1488.260 524.825, 1504.867 506.946, 1512.184 481.415 C 1515.289 470.581, 1515.306 450.217, 1512.219 438.870 C 1503.638 407.329, 1479.272 387.758, 1446 385.686 C 1441.325 385.395, 1434.662 385.547, 1431.193 386.024 M 1608.547 386.074 C 1596.190 387.953, 1586.678 392.564, 1577.555 401.097 C 1573.173 405.196, 1570.858 406.765, 1570.530 405.856 C 1570.262 405.110, 1569.920 401.125, 1569.771 397 L 1569.500 389.500 1556.874 389.221 C 1544.471 388.947, 1544.238 388.982, 1543.638 391.221 C 1542.845 394.180, 1542.838 527.793, 1543.630 530.750 C 1544.216 532.935, 1544.602 533, 1557.098 533 C 1569.621 533, 1569.975 532.940, 1570.471 530.750 C 1570.751 529.513, 1571.121 510.275, 1571.294 488 C 1571.563 453.365, 1571.857 446.631, 1573.326 441.500 C 1577.499 426.921, 1585.314 416.440, 1595.858 411.281 C 1602.392 408.084, 1615.298 406.984, 1622.524 409.007 C 1627.915 410.516, 1635.330 416.766, 1638.046 422.090 C 1642.888 431.581, 1643.267 435.692, 1643.902 485.500 L 1644.500 532.500 1657.500 532.500 L 1670.500 532.500 1670.495 482 C 1670.491 437.435, 1670.288 430.709, 1668.763 424.766 C 1664.866 409.570, 1655.976 397.062, 1645.189 391.596 C 1635.345 386.607, 1620.123 384.314, 1608.547 386.074 M 1753.472 386.042 C 1743.539 387.341, 1735.028 389.901, 1725.141 394.563 L 1715.783 398.976 1716.492 409.238 C 1716.882 414.882, 1717.512 419.834, 1717.893 420.243 C 1718.274 420.651, 1721.126 419.396, 1724.231 417.454 C 1734.034 411.323, 1742.849 408.819, 1756.596 408.260 C 1771.548 407.653, 1777.573 409.112, 1784.198 414.943 C 1790.305 420.319, 1793.314 427.351, 1793.419 436.500 L 1793.500 443.500 1771.500 444.060 C 1746.284 444.701, 1740.789 445.730, 1726.280 452.526 C 1714.933 457.841, 1708.264 464.111, 1703.693 473.759 C 1700.652 480.180, 1700.500 481.073, 1700.500 492.553 C 1700.500 504.482, 1700.539 504.686, 1704.278 512.249 C 1708.629 521.052, 1713.520 525.832, 1722.588 530.143 C 1730.655 533.978, 1740.489 535.961, 1751.540 535.983 C 1766.563 536.011, 1779.562 531.428, 1789.661 522.542 C 1792.500 520.044, 1795.293 518, 1795.868 518 C 1796.471 518, 1797.037 521.063, 1797.206 525.250 L 1797.500 532.500 1809.843 532.782 L 1822.185 533.063 1821.726 482.282 C 1821.224 426.698, 1820.965 423.933, 1815.075 411.347 C 1810.023 400.551, 1799.789 392.180, 1787.073 388.443 C 1781.933 386.932, 1767.139 384.934, 1762.526 385.127 C 1760.862 385.197, 1756.787 385.608, 1753.472 386.042 M 2141.250 386.066 C 2131.457 387.339, 2120.649 390.652, 2111.850 395.076 L 2103.770 399.138 2104.489 409.819 C 2104.883 415.693, 2105.370 420.673, 2105.571 420.884 C 2105.771 421.096, 2108.987 419.442, 2112.718 417.209 C 2123.310 410.869, 2130.582 408.828, 2144.596 408.259 C 2159.548 407.653, 2165.574 409.112, 2172.198 414.943 C 2178.233 420.255, 2181.215 427.253, 2181.377 436.480 L 2181.500 443.500 2159.500 444.060 C 2134.273 444.701, 2128.791 445.729, 2114.247 452.542 C 2103.229 457.703, 2095.859 464.475, 2091.439 473.500 C 2088.662 479.170, 2088.500 480.191, 2088.500 492.053 C 2088.500 504.561, 2088.514 504.635, 2092.278 512.249 C 2096.629 521.052, 2101.521 525.832, 2110.588 530.143 C 2118.655 533.978, 2128.489 535.961, 2139.540 535.983 C 2154.563 536.011, 2167.562 531.428, 2177.661 522.542 C 2180.500 520.044, 2183.293 518, 2183.868 518 C 2184.471 518, 2185.037 521.063, 2185.206 525.250 L 2185.500 532.500 2197.849 532.782 L 2210.199 533.063 2209.708 482.782 C 2209.166 427.366, 2208.816 423.686, 2202.908 411.308 C 2195.895 396.613, 2182.903 388.581, 2162.026 386.034 C 2152.611 384.885, 2150.307 384.889, 2141.250 386.066 M 2310.199 386.456 C 2299.968 388.376, 2289.120 393.790, 2282.115 400.472 C 2278.927 403.512, 2275.797 406, 2275.160 406 C 2274.405 406, 2273.995 403.816, 2273.986 399.750 C 2273.962 388.468, 2274.629 389, 2260.490 389 C 2250.218 389, 2248.115 389.258, 2247.607 390.582 C 2246.814 392.649, 2246.814 529.351, 2247.607 531.418 C 2248.117 532.746, 2250.262 533, 2260.990 533 C 2273.395 533, 2273.784 532.934, 2274.370 530.750 C 2274.701 529.513, 2274.982 511.175, 2274.993 490 C 2275.016 446.923, 2275.724 440.927, 2282.220 428.738 C 2289.450 415.174, 2299.367 408.872, 2314.557 408.187 C 2325.862 407.677, 2332.004 409.926, 2338.043 416.786 C 2346.493 426.386, 2347.938 437.517, 2347.974 493.279 L 2348 533.058 2361.250 532.779 L 2374.500 532.500 2374.500 483 C 2374.500 438.991, 2374.302 432.657, 2372.715 425.898 C 2368.765 409.078, 2360.022 396.918, 2347.757 391.183 C 2336.382 385.865, 2322.596 384.130, 2310.199 386.456 M 1426.892 410.299 C 1413.899 415.772, 1405.703 425.153, 1400.308 440.731 C 1398.014 447.354, 1397.609 450.196, 1397.563 460 C 1397.501 473.137, 1398.784 479.466, 1403.555 489.559 C 1407.795 498.530, 1414.935 505.858, 1423.583 510.116 C 1436.375 516.413, 1454.006 515.059, 1465.393 506.905 C 1485.373 492.597, 1492.112 458.115, 1479.836 433 C 1475.957 425.065, 1465.611 414.401, 1458.500 411.008 C 1454.437 409.070, 1451.532 408.559, 1443 408.280 C 1433.749 407.978, 1431.833 408.219, 1426.892 410.299 M 1986 410.169 C 1979.390 412.757, 1969.855 421.928, 1965.719 429.675 C 1961.352 437.856, 1959 448.768, 1959 460.846 C 1959 484.352, 1968.104 502.495, 1983.769 510.207 C 1989.914 513.232, 1991.232 513.500, 1999.979 513.499 C 2011.785 513.498, 2016.748 511.484, 2024.498 503.546 C 2030.380 497.522, 2034.841 489.166, 2037.605 479 C 2040.028 470.087, 2040.013 449.070, 2037.577 440 C 2033.979 426.603, 2025.948 415.614, 2016.270 410.849 C 2009.346 407.439, 1993.859 407.091, 1986 410.169 M 1013 464.720 C 991.496 467.175, 978.092 477.162, 978.022 490.782 C 977.980 498.965, 983.248 506.966, 991.500 511.253 C 997.047 514.135, 1008.557 514.737, 1017.025 512.588 C 1034.253 508.216, 1044 494.188, 1044 473.765 C 1044 466.297, 1043.886 465.907, 1041.435 464.975 C 1038.986 464.044, 1020.381 463.877, 1013 464.720 M 1761.539 465.112 C 1746.677 467.278, 1736.704 472.244, 1731.851 479.895 C 1728.241 485.589, 1727.854 494.833, 1730.971 500.943 C 1739.666 517.988, 1770.435 518.544, 1785.446 501.928 C 1791.625 495.088, 1793.348 490.078, 1793.821 477.572 C 1794.186 467.898, 1794.026 466.492, 1792.426 465.322 C 1790.348 463.803, 1771.409 463.674, 1761.539 465.112 M 2149.500 465.109 C 2134.210 467.314, 2123.738 472.662, 2119.272 480.547 C 2116.489 485.461, 2116.169 495.447, 2118.630 500.632 C 2126.798 517.845, 2158.391 518.592, 2173.446 501.928 C 2179.625 495.088, 2181.348 490.078, 2181.821 477.572 C 2182.186 467.898, 2182.026 466.492, 2180.426 465.322 C 2178.350 463.804, 2159.450 463.674, 2149.500 465.109" stroke="none" fill="black" fill-rule="evenodd"/>
</svg>